<?xml version="1.0" encoding="UTF-8"?>
<svg width="20px" height="19px" viewBox="0 0 20 19" version="1.1" xmlns="http://www.w3.org/2000/svg" xmlns:xlink="http://www.w3.org/1999/xlink">
    <!-- Generator: Sketch 51.3 (57544) - http://www.bohemiancoding.com/sketch -->
    <title>calendar (1)</title>
    <desc>Created with Sketch.</desc>
    <defs></defs>
    <g id="Page-1" stroke="none" stroke-width="1" fill="none" fill-rule="evenodd">
        <g id="Dashboard" transform="translate(-1187.000000, -70.000000)" fill="#305AC7" fill-rule="nonzero">
            <g id="filter-calendar" transform="translate(1169.000000, 60.000000)">
                <g id="calendar-(1)" transform="translate(18.000000, 10.000000)">
                    <path d="M16.8398566,1.29763441 L14.3450896,1.29763441 L14.3450896,0.67390681 C14.3450896,0.299713262 14.0956272,0.0501792115 13.721362,0.0501792115 C13.3470968,0.0501792115 13.0976344,0.299641577 13.0976344,0.67390681 L13.0976344,1.29763441 L6.86071685,1.29763441 L6.86071685,0.67390681 C6.86071685,0.299713262 6.61125448,0.0501792115 6.23698925,0.0501792115 C5.8627957,0.0501792115 5.61326165,0.299641577 5.61326165,0.67390681 L5.61326165,1.29763441 L3.11849462,1.29763441 C1.3721147,1.29763441 2.84217094e-14,2.6697491 2.84217094e-14,4.41612903 L2.84217094e-14,15.642724 C2.84217094e-14,17.3891039 1.3721147,18.7612186 3.11849462,18.7612186 L16.8398566,18.7612186 C18.5862366,18.7612186 19.9583513,17.3891039 19.9583513,15.642724 L19.9583513,4.41612903 C19.9583513,2.6697491 18.5862366,1.29763441 16.8398566,1.29763441 Z M1.24738351,4.41612903 C1.24738351,3.41820789 2.12057348,2.54501792 3.11849462,2.54501792 L5.61326165,2.54501792 L5.61326165,3.16874552 C5.61326165,3.54293907 5.86272401,3.79247312 6.23698925,3.79247312 C6.6111828,3.79247312 6.86071685,3.54301075 6.86071685,3.16874552 L6.86071685,2.54501792 L13.0977061,2.54501792 L13.0977061,3.16874552 C13.0977061,3.54293907 13.3471685,3.79247312 13.7214337,3.79247312 C14.0956989,3.79247312 14.3451613,3.54301075 14.3451613,3.16874552 L14.3451613,2.54501792 L16.8399283,2.54501792 C17.8378495,2.54501792 18.7110394,3.41820789 18.7110394,4.41612903 L18.7110394,6.28724014 L1.24738351,6.28724014 L1.24738351,4.41612903 Z M18.7109677,15.642724 C18.7109677,16.6406452 17.8377778,17.5138351 16.8398566,17.5138351 L3.11849462,17.5138351 C2.12057348,17.5138351 1.24738351,16.6406452 1.24738351,15.642724 L1.24738351,7.53462366 L18.7109677,7.53462366 L18.7109677,15.642724 Z" id="Shape"></path>
                    <path d="M4.36587814,15.642724 C4.74007168,15.642724 4.98960573,15.5179928 5.2390681,15.2685305 C5.48853047,15.0190681 5.61326165,14.6448029 5.61326165,14.3953405 C5.61326165,14.1458781 5.48853047,13.7716129 5.2390681,13.5221505 C4.74014337,13.0232258 3.99168459,13.0232258 3.49268817,13.5221505 C3.24322581,13.7716129 3.11849462,14.0210753 3.11849462,14.3953405 C3.11849462,14.6448029 3.24322581,15.0190681 3.49268817,15.2685305 C3.74215054,15.5179928 3.99168459,15.642724 4.36587814,15.642724 Z" id="Shape"></path>
                    <path d="M4.36587814,11.9005018 C4.74007168,11.9005018 4.98960573,11.7757706 5.2390681,11.5263082 C5.48853047,11.2768459 5.61326165,10.9025806 5.61326165,10.6531183 C5.61326165,10.4036559 5.48853047,10.0293907 5.2390681,9.77992832 C4.74014337,9.28100358 3.99168459,9.28100358 3.49268817,9.77992832 C3.24322581,10.0293907 3.11849462,10.278853 3.11849462,10.6531183 C3.11849462,11.0273835 3.24322581,11.2768459 3.49268817,11.5263082 C3.74215054,11.7757706 3.99168459,11.9005018 4.36587814,11.9005018 Z" id="Shape"></path>
                    <path d="M8.10810036,15.642724 C8.48229391,15.642724 8.73182796,15.5179928 8.98129032,15.2685305 C9.23075269,15.0190681 9.35548387,14.6448029 9.35548387,14.3953405 C9.35548387,14.1458781 9.23075269,13.7716129 8.98129032,13.5221505 C8.48236559,13.0232258 7.73390681,13.0232258 7.23491039,13.5221505 C6.98544803,13.7716129 6.86071685,14.1458781 6.86071685,14.3953405 C6.86071685,14.6448029 6.98544803,15.0190681 7.23491039,15.2685305 C7.48437276,15.5179928 7.73390681,15.642724 8.10810036,15.642724 Z" id="Shape"></path>
                    <path d="M8.10810036,11.9005018 C8.48229391,11.9005018 8.73182796,11.7757706 8.98129032,11.5263082 C9.23075269,11.2768459 9.35548387,10.9025806 9.35548387,10.6531183 C9.35548387,10.4036559 9.23075269,10.0293907 8.98129032,9.77992832 C8.48236559,9.28100358 7.73390681,9.28100358 7.23491039,9.77992832 C6.98544803,10.0293907 6.86071685,10.4036559 6.86071685,10.6531183 C6.86071685,10.9025806 6.98544803,11.2768459 7.23491039,11.5263082 C7.48437276,11.7757706 7.73390681,11.9005018 8.10810036,11.9005018 Z" id="Shape"></path>
                    <path d="M11.8502509,15.642724 C12.2244444,15.642724 12.4739785,15.5179928 12.7234409,15.2685305 C12.9729032,15.0190681 13.0976344,14.7696057 13.0976344,14.3953405 C13.0976344,14.0210753 12.9729032,13.7716129 12.7234409,13.5221505 C12.2245161,13.0232258 11.4760573,13.0232258 10.9770609,13.5221505 C10.7275986,13.7716129 10.6028674,14.1458781 10.6028674,14.3953405 C10.6028674,14.6448029 10.7275986,15.0190681 10.9770609,15.2685305 C11.2265233,15.5179928 11.4760573,15.642724 11.8502509,15.642724 Z" id="Shape"></path>
                    <path d="M11.8502509,11.9005018 C12.2244444,11.9005018 12.4739785,11.7757706 12.7234409,11.5263082 C12.9729032,11.2768459 13.0976344,11.0273835 13.0976344,10.6531183 C13.0976344,10.4036559 12.9729032,10.0293907 12.7234409,9.77992832 C12.2245161,9.28100358 11.4760573,9.28100358 10.9770609,9.77992832 C10.7275986,10.0293907 10.6028674,10.4036559 10.6028674,10.6531183 C10.6028674,10.9025806 10.7275986,11.2768459 10.9770609,11.5263082 C11.2265233,11.7757706 11.4760573,11.9005018 11.8502509,11.9005018 Z" id="Shape"></path>
                    <path d="M15.5924731,15.642724 C15.9666667,15.642724 16.2162007,15.5179928 16.4656631,15.2685305 C16.7151254,15.0190681 16.8398566,14.6448029 16.8398566,14.3953405 C16.8398566,14.1458781 16.7151254,13.7716129 16.4656631,13.5221505 C15.9667384,13.0232258 15.2182796,13.0232258 14.7192832,13.5221505 C14.4698208,13.7716129 14.3450896,14.0210753 14.3450896,14.3953405 C14.3450896,14.6448029 14.4698208,15.0190681 14.7192832,15.2685305 C14.9687455,15.5179928 15.2182796,15.642724 15.5924731,15.642724 Z" id="Shape"></path>
                    <path d="M15.5924731,11.9005018 C15.9666667,11.9005018 16.2162007,11.7757706 16.4656631,11.5263082 C16.7151254,11.2768459 16.8398566,11.0273835 16.8398566,10.6531183 C16.8398566,10.4036559 16.7151254,10.0293907 16.4656631,9.77992832 C15.9667384,9.28100358 15.2182796,9.28100358 14.7192832,9.77992832 C14.4698208,10.0293907 14.3450896,10.4036559 14.3450896,10.6531183 C14.3450896,10.9025806 14.4698208,11.2768459 14.7192832,11.5263082 C14.9687455,11.7757706 15.2182796,11.9005018 15.5924731,11.9005018 Z" id="Shape"></path>
                </g>
            </g>
        </g>
    </g>
</svg>