<?xml version="1.0" encoding="UTF-8"?>
<svg width="17px" height="17px" viewBox="0 0 17 17" version="1.1" xmlns="http://www.w3.org/2000/svg" xmlns:xlink="http://www.w3.org/1999/xlink">
    <!-- Generator: Sketch 49.3 (51167) - http://www.bohemiancoding.com/sketch -->
    <title>close</title>
    <desc>Created with Sketch.</desc>
    <defs></defs>
    <g id="New-Codica" stroke="none" stroke-width="1" fill="none" fill-rule="evenodd">
        <g id="home-mobile-menu" transform="translate(-335.000000, -27.000000)" fill="#686868" fill-rule="nonzero" stroke="#686868" stroke-width="0.4">
            <g id="menu" transform="translate(-103.000000, 0.000000)">
                <g id="close" transform="translate(439.000000, 28.000000)">
                    <path d="M14.8225487,0.177473231 C14.5859178,-0.0591577437 14.202275,-0.0591577437 13.965644,0.177473231 L0.177473231,13.9656147 C-0.0591577437,14.2022457 -0.0591577437,14.5858885 0.177473231,14.8225194 C0.29577407,14.9408789 0.450871802,15 0.605940237,15 C0.761008672,15 0.916077107,14.9408496 1.03440724,14.8224901 L14.8225487,1.03434865 C15.0591504,0.797746972 15.0591504,0.414104206 14.8225487,0.177473231 Z" id="Shape"></path>
                    <path d="M14.8225448,13.9656147 L1.03435042,0.177473231 C0.797748335,-0.0591577437 0.414075617,-0.0591577437 0.177473534,0.177473231 C-0.0591578448,0.414074909 -0.0591578448,0.797717675 0.177473534,1.03434865 L13.9656679,14.8225194 C14.0839689,14.9408496 14.2390669,15 14.3941356,15 C14.5492043,15 14.7043023,14.9408496 14.8225741,14.8225487 C15.0591469,14.5858885 15.0591469,14.2022457 14.8225448,13.9656147 Z" id="Shape"></path>
                </g>
            </g>
        </g>
    </g>
</svg>