<?xml version="1.0" encoding="UTF-8"?>
<svg width="16px" height="16px" viewBox="0 0 16 16" version="1.1" xmlns="http://www.w3.org/2000/svg" xmlns:xlink="http://www.w3.org/1999/xlink">
    <!-- Generator: Sketch 51.3 (57544) - http://www.bohemiancoding.com/sketch -->
    <title>ic-calendar</title>
    <desc>Created with Sketch.</desc>
    <defs></defs>
    <g id="Page-1" stroke="none" stroke-width="1" fill="none" fill-rule="evenodd">
        <g id="Dashboard-ui" transform="translate(-387.000000, -2353.000000)" fill="#305AC7" fill-rule="nonzero">
            <g id="ic-calendar" transform="translate(387.000000, 2353.000000)">
                <path d="M13.4718853,1.03810753 L11.4760717,1.03810753 L11.4760717,0.539125448 C11.4760717,0.239770609 11.2765018,0.0401433692 10.9770896,0.0401433692 C10.6776774,0.0401433692 10.4781075,0.239713262 10.4781075,0.539125448 L10.4781075,1.03810753 L5.48857348,1.03810753 L5.48857348,0.539125448 C5.48857348,0.239770609 5.28900358,0.0401433692 4.9895914,0.0401433692 C4.69023656,0.0401433692 4.49060932,0.239713262 4.49060932,0.539125448 L4.49060932,1.03810753 L2.4947957,1.03810753 C1.09769176,1.03810753 2.84217094e-14,2.13579928 2.84217094e-14,3.53290323 L2.84217094e-14,12.5141792 C2.84217094e-14,13.9112832 1.09769176,15.0089749 2.4947957,15.0089749 L13.4718853,15.0089749 C14.8689892,15.0089749 15.966681,13.9112832 15.966681,12.5141792 L15.966681,3.53290323 C15.966681,2.13579928 14.8689892,1.03810753 13.4718853,1.03810753 Z M0.99790681,3.53290323 C0.99790681,2.73456631 1.69645878,2.03601434 2.4947957,2.03601434 L4.49060932,2.03601434 L4.49060932,2.53499642 C4.49060932,2.83435125 4.69017921,3.03397849 4.9895914,3.03397849 C5.28894624,3.03397849 5.48857348,2.8344086 5.48857348,2.53499642 L5.48857348,2.03601434 L10.4781649,2.03601434 L10.4781649,2.53499642 C10.4781649,2.83435125 10.6777348,3.03397849 10.977147,3.03397849 C11.2765591,3.03397849 11.476129,2.8344086 11.476129,2.53499642 L11.476129,2.03601434 L13.4719427,2.03601434 C14.2702796,2.03601434 14.9688315,2.73456631 14.9688315,3.53290323 L14.9688315,5.02979211 L0.99790681,5.02979211 L0.99790681,3.53290323 Z M14.9687742,12.5141792 C14.9687742,13.3125161 14.2702222,14.0110681 13.4718853,14.0110681 L2.4947957,14.0110681 C1.69645878,14.0110681 0.99790681,13.3125161 0.99790681,12.5141792 L0.99790681,6.02769892 L14.9687742,6.02769892 L14.9687742,12.5141792 Z" id="Shape"></path>
                <path d="M3.49270251,12.5141792 C3.79205735,12.5141792 3.99168459,12.4143943 4.19125448,12.2148244 C4.39082437,12.0152545 4.49060932,11.7158423 4.49060932,11.5162724 C4.49060932,11.3167025 4.39082437,11.0172903 4.19125448,10.8177204 C3.7921147,10.4185806 3.19334767,10.4185806 2.79415054,10.8177204 C2.59458065,11.0172903 2.4947957,11.2168602 2.4947957,11.5162724 C2.4947957,11.7158423 2.59458065,12.0152545 2.79415054,12.2148244 C2.99372043,12.4143943 3.19334767,12.5141792 3.49270251,12.5141792 Z" id="Shape"></path>
                <path d="M3.49270251,9.52040143 C3.79205735,9.52040143 3.99168459,9.42061649 4.19125448,9.22104659 C4.39082437,9.0214767 4.49060932,8.72206452 4.49060932,8.52249462 C4.49060932,8.32292473 4.39082437,8.02351254 4.19125448,7.82394265 C3.7921147,7.42480287 3.19334767,7.42480287 2.79415054,7.82394265 C2.59458065,8.02351254 2.4947957,8.22308244 2.4947957,8.52249462 C2.4947957,8.82190681 2.59458065,9.0214767 2.79415054,9.22104659 C2.99372043,9.42061649 3.19334767,9.52040143 3.49270251,9.52040143 Z" id="Shape"></path>
                <path d="M6.48648029,12.5141792 C6.78583513,12.5141792 6.98546237,12.4143943 7.18503226,12.2148244 C7.38460215,12.0152545 7.4843871,11.7158423 7.4843871,11.5162724 C7.4843871,11.3167025 7.38460215,11.0172903 7.18503226,10.8177204 C6.78589247,10.4185806 6.18712545,10.4185806 5.78792832,10.8177204 C5.58835842,11.0172903 5.48857348,11.3167025 5.48857348,11.5162724 C5.48857348,11.7158423 5.58835842,12.0152545 5.78792832,12.2148244 C5.98749821,12.4143943 6.18712545,12.5141792 6.48648029,12.5141792 Z" id="Shape"></path>
                <path d="M6.48648029,9.52040143 C6.78583513,9.52040143 6.98546237,9.42061649 7.18503226,9.22104659 C7.38460215,9.0214767 7.4843871,8.72206452 7.4843871,8.52249462 C7.4843871,8.32292473 7.38460215,8.02351254 7.18503226,7.82394265 C6.78589247,7.42480287 6.18712545,7.42480287 5.78792832,7.82394265 C5.58835842,8.02351254 5.48857348,8.32292473 5.48857348,8.52249462 C5.48857348,8.72206452 5.58835842,9.0214767 5.78792832,9.22104659 C5.98749821,9.42061649 6.18712545,9.52040143 6.48648029,9.52040143 Z" id="Shape"></path>
                <path d="M9.48020072,12.5141792 C9.77955556,12.5141792 9.9791828,12.4143943 10.1787527,12.2148244 C10.3783226,12.0152545 10.4781075,11.8156846 10.4781075,11.5162724 C10.4781075,11.2168602 10.3783226,11.0172903 10.1787527,10.8177204 C9.7796129,10.4185806 9.18084588,10.4185806 8.78164875,10.8177204 C8.58207885,11.0172903 8.48229391,11.3167025 8.48229391,11.5162724 C8.48229391,11.7158423 8.58207885,12.0152545 8.78164875,12.2148244 C8.98121864,12.4143943 9.18084588,12.5141792 9.48020072,12.5141792 Z" id="Shape"></path>
                <path d="M9.48020072,9.52040143 C9.77955556,9.52040143 9.9791828,9.42061649 10.1787527,9.22104659 C10.3783226,9.0214767 10.4781075,8.82190681 10.4781075,8.52249462 C10.4781075,8.32292473 10.3783226,8.02351254 10.1787527,7.82394265 C9.7796129,7.42480287 9.18084588,7.42480287 8.78164875,7.82394265 C8.58207885,8.02351254 8.48229391,8.32292473 8.48229391,8.52249462 C8.48229391,8.72206452 8.58207885,9.0214767 8.78164875,9.22104659 C8.98121864,9.42061649 9.18084588,9.52040143 9.48020072,9.52040143 Z" id="Shape"></path>
                <path d="M12.4739785,12.5141792 C12.7733333,12.5141792 12.9729606,12.4143943 13.1725305,12.2148244 C13.3721004,12.0152545 13.4718853,11.7158423 13.4718853,11.5162724 C13.4718853,11.3167025 13.3721004,11.0172903 13.1725305,10.8177204 C12.7733907,10.4185806 12.1746237,10.4185806 11.7754265,10.8177204 C11.5758566,11.0172903 11.4760717,11.2168602 11.4760717,11.5162724 C11.4760717,11.7158423 11.5758566,12.0152545 11.7754265,12.2148244 C11.9749964,12.4143943 12.1746237,12.5141792 12.4739785,12.5141792 Z" id="Shape"></path>
                <path d="M12.4739785,9.52040143 C12.7733333,9.52040143 12.9729606,9.42061649 13.1725305,9.22104659 C13.3721004,9.0214767 13.4718853,8.82190681 13.4718853,8.52249462 C13.4718853,8.32292473 13.3721004,8.02351254 13.1725305,7.82394265 C12.7733907,7.42480287 12.1746237,7.42480287 11.7754265,7.82394265 C11.5758566,8.02351254 11.4760717,8.32292473 11.4760717,8.52249462 C11.4760717,8.72206452 11.5758566,9.0214767 11.7754265,9.22104659 C11.9749964,9.42061649 12.1746237,9.52040143 12.4739785,9.52040143 Z" id="Shape"></path>
            </g>
        </g>
    </g>
</svg>