<?xml version="1.0" encoding="UTF-8"?>
<svg width="35px" height="35px" viewBox="0 0 35 35" version="1.1" xmlns="http://www.w3.org/2000/svg" xmlns:xlink="http://www.w3.org/1999/xlink">
    <!-- Generator: Sketch 51.3 (57544) - http://www.bohemiancoding.com/sketch -->
    <title>ic-delete</title>
    <desc>Created with Sketch.</desc>
    <defs></defs>
    <g id="Page-1" stroke="none" stroke-width="1" fill="none" fill-rule="evenodd">
        <g id="Dashboard-ui" transform="translate(-219.000000, -2530.000000)" fill-rule="nonzero">
            <g id="ic-delete" transform="translate(219.000000, 2530.000000)">
                <path d="M17.5,35 C7.83501688,35 0,27.1649831 0,17.5 C0,7.83501688 7.83501688,0 17.5,0 C27.1649831,0 35,7.83501688 35,17.5 C35,27.1649831 27.1649831,35 17.5,35 Z" id="Oval-4-Copy-2" fill="#F9D1CD"></path>
                <g id="trash" transform="translate(9.000000, 8.000000)" fill="#ED675A">
                    <path d="M3.96666667,19 L13.0333333,19 C13.9706944,19 14.7333333,18.2508545 14.7333333,17.3300781 L14.7333333,7.79296875 L16.4333333,7.79296875 C16.7464757,7.79296875 17,7.54393004 17,7.23632812 C17,6.92872621 16.7464757,6.6796875 16.4333333,6.6796875 L0.566666667,6.6796875 C0.253524324,6.6796875 0,6.92872621 0,7.23632812 C0,7.54393004 0.253524324,7.79296875 0.566666667,7.79296875 L2.26666667,7.79296875 L2.26666667,17.3300781 C2.26666667,18.2508545 3.02930556,19 3.96666667,19 Z M10.7666667,10.0195312 C10.7666667,9.71192934 11.020191,9.46289062 11.3333333,9.46289062 C11.6464757,9.46289062 11.9,9.71192934 11.9,10.0195312 L11.9,15.6601562 C11.9,15.9677582 11.6464757,16.2167969 11.3333333,16.2167969 C11.020191,16.2167969 10.7666667,15.9677582 10.7666667,15.6601562 L10.7666667,10.0195312 Z M7.93333333,10.0195312 C7.93333333,9.71192934 8.18685766,9.46289062 8.5,9.46289062 C8.81314234,9.46289062 9.06666667,9.71192934 9.06666667,10.0195312 L9.06666667,15.6601562 C9.06666667,15.9677582 8.81314234,16.2167969 8.5,16.2167969 C8.18685766,16.2167969 7.93333333,15.9677582 7.93333333,15.6601562 L7.93333333,10.0195312 Z M5.1,10.0195312 C5.1,9.71192934 5.35352432,9.46289062 5.66666667,9.46289062 C5.97980901,9.46289062 6.23333333,9.71192934 6.23333333,10.0195312 L6.23333333,15.6601562 C6.23333333,15.9677582 5.97980901,16.2167969 5.66666667,16.2167969 C5.35352432,16.2167969 5.1,15.9677582 5.1,15.6601562 L5.1,10.0195312 Z" id="Shape"></path>
                    <path d="M11.9,2.2265625 L11.3333333,2.2265625 L11.3333333,1.66992187 C11.3333333,0.749145508 10.5706944,0 9.63333333,0 L7.36666667,0 C6.42930556,0 5.66666667,0.749145508 5.66666667,1.66992187 L5.66666667,2.2265625 L5.1,2.2265625 C3.10707466,2.2265625 1.46846355,3.68310547 1.19059028,5.56640625 L15.8094097,5.56640625 C15.5315364,3.68310547 13.8929253,2.2265625 11.9,2.2265625 Z M6.8,1.66992187 C6.8,1.36275481 7.053967,1.11328125 7.36666667,1.11328125 L9.63333333,1.11328125 C9.946033,1.11328125 10.2,1.36275481 10.2,1.66992187 L10.2,2.2265625 L6.8,2.2265625 L6.8,1.66992187 Z" id="Shape"></path>
                </g>
            </g>
        </g>
    </g>
</svg>