<?xml version="1.0" encoding="UTF-8"?>
<svg width="18px" height="18px" viewBox="0 0 18 18" version="1.1" xmlns="http://www.w3.org/2000/svg" xmlns:xlink="http://www.w3.org/1999/xlink">
    <!-- Generator: Sketch 51.3 (57544) - http://www.bohemiancoding.com/sketch -->
    <title>ic-time-hover</title>
    <desc>Created with Sketch.</desc>
    <defs></defs>
    <g id="Page-1" stroke="none" stroke-width="1" fill="none" fill-rule="evenodd">
        <g id="Dashboard-ui" transform="translate(-498.000000, -2352.000000)" fill="#305AC7" fill-rule="nonzero" stroke="#305AC7" stroke-width="0.3">
            <g id="ic-time-hover" transform="translate(499.000000, 2353.000000)">
                <path d="M8,0 C3.58172458,0 0,3.58172458 0,8 C0,12.4182754 3.58172458,16 8,16 C12.4182754,16 16,12.4182754 16,8 C15.9943372,3.58408408 12.4159159,0.00566280566 8,0 Z M8.34320034,15.2964393 L8.34320034,13.8893179 C8.34320034,13.6997855 8.18953239,13.5461175 8,13.5461175 C7.81046761,13.5461175 7.65679966,13.6997855 7.65679966,13.8893179 L7.65679966,15.2964393 C3.89356499,15.1167739 0.883226083,12.106435 0.703560704,8.34320034 L2.11068211,8.34320034 C2.3002145,8.34320034 2.45388245,8.18953239 2.45388245,8 C2.45388245,7.81046761 2.3002145,7.65679966 2.11068211,7.65679966 L0.703560704,7.65679966 C0.883226083,3.89356499 3.89356499,0.883226083 7.65679966,0.703560704 L7.65679966,2.11068211 C7.65679966,2.3002145 7.81046761,2.45388245 8,2.45388245 C8.18953239,2.45388245 8.34320034,2.3002145 8.34320034,2.11068211 L8.34320034,0.703560704 C12.106435,0.883226083 15.1167739,3.89356499 15.2964393,7.65679966 L13.8893179,7.65679966 C13.6997855,7.65679966 13.5461175,7.81046761 13.5461175,8 C13.5461175,8.18953239 13.6997855,8.34320034 13.8893179,8.34320034 L13.8927499,8.34320034 L15.2998713,8.34320034 C15.1200772,12.1076791 12.1077649,15.1184899 8.34320034,15.2964393 Z" id="Shape"></path>
                <path d="M11.9034713,11.395352 L8.67592577,7.94300259 L8.67592577,4.35554577 C8.67592577,4.15919562 8.52460288,4 8.33796288,4 C8.15132288,4 8,4.15919562 8,4.35554577 L8,8.08877636 C8.00038021,8.18206268 8.03557059,8.271438 8.09800924,8.3376584 L11.4201844,11.8931161 C11.5508493,12.0335122 11.7649488,12.0359122 11.8984019,11.8984493 C12.0318549,11.7609864 12.0341362,11.5357482 11.9034713,11.395352 Z" id="Shape"></path>
            </g>
        </g>
    </g>
</svg>