<?xml version="1.0" encoding="UTF-8"?>
<svg width="76px" height="80px" viewBox="0 0 76 80" version="1.1" xmlns="http://www.w3.org/2000/svg" xmlns:xlink="http://www.w3.org/1999/xlink">
    <!-- Generator: Sketch 51.3 (57544) - http://www.bohemiancoding.com/sketch -->
    <title>analysis</title>
    <desc>Created with Sketch.</desc>
    <defs></defs>
    <g id="Page-1" stroke="none" stroke-width="1" fill="none" fill-rule="evenodd">
        <g id="Dashboard" transform="translate(-198.000000, -111.000000)" fill-rule="nonzero">
            <g id="stats1" transform="translate(197.000000, 110.000000)">
                <g id="analysis" transform="translate(1.000000, 1.000000)">
                    <path d="M3,0 L65,0 L65,80 L3,80 C1.34314575,80 7.30833348e-15,78.6568542 7.10542736e-15,77 L0,3 C-2.02906125e-16,1.34314575 1.34314575,3.04359188e-16 3,0 Z" id="Mask" fill="#305AC7"></path>
                    <g transform="translate(16.000000, 12.000000)">
                        <g id="Group" transform="translate(15.000000, 46.500000)" fill="#FFFFFF">
                            <path d="M21.3696094,11.2139063 C21.0502734,11.2139063 20.7421875,11.0392969 20.5866797,10.7354297 L15.7898438,1.37015625 C15.5685938,0.938085938 15.7393359,0.408515625 16.1714063,0.187148438 C16.6034766,-0.0336328125 17.1330469,0.136640625 17.3542969,0.568828125 L22.1511328,9.93410156 C22.3723828,10.3661719 22.2016406,10.8957422 21.7695703,11.1171094 C21.6413672,11.1827344 21.5044922,11.2139063 21.3696094,11.2139063 Z" id="Shape"></path>
                            <path d="M0.9825,11.2139063 C0.847617187,11.2139063 0.710742188,11.1827344 0.582539062,11.1171094 C0.15046875,10.8957422 -0.020390625,10.3661719 0.200976562,9.93410156 L4.9978125,0.568828125 C5.21917969,0.136640625 5.74898437,-0.033984375 6.18070312,0.187148437 C6.61277344,0.408515625 6.78363281,0.938085937 6.56226562,1.37015625 L1.76542969,10.7354297 C1.60980469,11.0392969 1.30183594,11.2139063 0.9825,11.2139063 Z" id="Shape"></path>
                        </g>
                        <path d="M9.75,46.1824826 L9.75,43.5 L43.5,43.5 L43.5,46.1824826 C43.5,46.7720588 42.9950758,47.25 42.3722139,47.25 L10.8777861,47.25 C10.2549242,47.25 9.75,46.7720588 9.75,46.1824826 Z" id="Shape" fill="#F2C733"></path>
                        <path d="M40.0597802,43.5 L40.0597802,46.1824826 C40.0597802,46.7720588 39.5853031,47.25 39,47.25 L41.6902198,47.25 C42.2755229,47.25 42.75,46.7720588 42.75,46.1824826 L42.75,43.5 L40.0597802,43.5 Z" id="Shape" fill="#FCAB29"></path>
                        <path d="M22.5,3.75 L22.5,1.26460115 C22.5,0.566204297 23.1124766,0 23.8679489,0 L29.3820511,0 C30.1375234,0 30.75,0.566204297 30.75,1.26460115 L30.75,3.74988826 L22.5,3.74988826 L22.5,3.75 Z" id="Shape" fill="#F2C733"></path>
                        <path d="M29.3250441,0 L26.25,0 C27.0369554,0 27.6749559,0.566221169 27.6749559,1.26463883 L27.6749559,3.75 L30.75,3.75 L30.75,1.26463883 C30.75,0.566109422 30.1119995,0 29.3250441,0 Z" id="Shape" fill="#FCAB29"></path>
                        <path d="M50.0068385,3 L2.49316152,3 C1.1184265,3 0,4.11575207 0,5.48719976 L0,41.7628002 C0,43.1342479 1.1184265,44.25 2.49316152,44.25 L50.0068385,44.25 C51.3815735,44.25 52.5,43.1342479 52.5,41.7628002 L52.5,5.48719976 C52.5001175,4.11575207 51.381691,3 50.0068385,3 Z" id="Shape" fill="#EDEFF8"></path>
                        <path d="M50.0953982,3 L47.25,3 C48.575903,3 49.6546018,4.11575207 49.6546018,5.48719976 L49.6546018,41.7628002 C49.6546018,43.1342479 48.575903,44.25 47.25,44.25 L50.0953982,44.25 C51.4213012,44.25 52.5,43.1342479 52.5,41.7628002 L52.5,5.48719976 C52.5001133,4.11575207 51.4214145,3 50.0953982,3 Z" id="Shape" fill="#D1D6DE"></path>
                        <g id="Group" transform="translate(15.000000, 12.000000)" fill="#1B3D66">
                            <path d="M0.983699239,10.4216629 C0.675430203,10.4216629 0.37601269,10.2605056 0.21302665,9.97334831 C-0.0282068528,9.54827528 0.120852792,9.00829213 0.546079949,8.76702809 L5.07900381,6.19582584 C5.50399492,5.95467978 6.0444099,6.10380337 6.2856434,6.52875843 C6.5268769,6.95383146 6.37781726,7.49381461 5.9525901,7.73507865 L1.41966624,10.3062809 C1.28181853,10.3845 1.13181472,10.4216629 0.983699239,10.4216629 Z" id="Shape"></path>
                            <path d="M13.6391345,10.4216629 C13.4911371,10.4216629 13.3411332,10.384618 13.2031675,10.3062809 L8.67024365,7.73507865 C8.2450165,7.49381461 8.09595685,6.95383146 8.33719036,6.52875843 C8.57842386,6.10356742 9.11860279,5.95467978 9.54382995,6.19582584 L14.0767538,8.76702809 C14.501981,9.00829213 14.6510406,9.54827528 14.4098071,9.97334831 C14.2468211,10.2605056 13.9472855,10.4216629 13.6391345,10.4216629 Z" id="Shape"></path>
                            <path d="M16.6367322,9.76370225 C16.4584036,9.76370225 16.2784226,9.71002247 16.1223997,9.59841573 C15.7249074,9.31397191 15.6332056,8.76124719 15.9177525,8.36389888 L21.6376066,0.373634831 C21.9221536,-0.0238314607 22.4749607,-0.1155 22.8725711,0.16894382 C23.2700635,0.45338764 23.3617652,1.00611236 23.0772183,1.40346067 L17.3573642,9.39372472 C17.1844645,9.63510674 16.9126637,9.76370225 16.6367322,9.76370225 Z" id="Shape"></path>
                        </g>
                        <g id="Group" transform="translate(12.000000, 22.500000)" fill="#61BCA9">
                            <path d="M0.105170168,8.32136667 L0.105170168,15.3532167 C0.105170168,15.5465333 0.261759454,15.7032167 0.454960084,15.7032167 L3.30306618,15.7032167 C3.49626681,15.7032167 3.65285609,15.5465333 3.65285609,15.3532167 L3.65285609,8.32136667 C3.65285609,8.12805 3.49626681,7.97136667 3.30306618,7.97136667 L0.454960084,7.97136667 C0.261759454,7.97136667 0.105170168,8.12805 0.105170168,8.32136667 Z" id="Shape"></path>
                            <path d="M8.13121639,3.84976667 L8.13121639,15.3531 C8.13121639,15.5464167 8.28780567,15.7031 8.4810063,15.7031 L11.3291124,15.7031 C11.522313,15.7031 11.6789023,15.5464167 11.6789023,15.3531 L11.6789023,3.84976667 C11.6789023,3.65645 11.522313,3.49976667 11.3291124,3.49976667 L8.4810063,3.49976667 C8.28780567,3.49976667 8.13121639,3.65656667 8.13121639,3.84976667 Z" id="Shape"></path>
                            <path d="M16.157146,8.32136667 L16.157146,15.3532167 C16.157146,15.5465333 16.3137353,15.7032167 16.5069359,15.7032167 L19.355042,15.7032167 C19.5482426,15.7032167 19.7048319,15.5465333 19.7048319,15.3532167 L19.7048319,8.32136667 C19.7048319,8.12805 19.5482426,7.97136667 19.355042,7.97136667 L16.5069359,7.97136667 C16.3137353,7.97136667 16.157146,8.12805 16.157146,8.32136667 Z" id="Shape"></path>
                            <path d="M24.1831922,0.36295 L24.1831922,15.3532167 C24.1831922,15.5465333 24.3397815,15.7032167 24.5329821,15.7032167 L27.3810882,15.7032167 C27.5742889,15.7032167 27.7308782,15.5465333 27.7308782,15.3532167 L27.7308782,0.36295 C27.7308782,0.169633333 27.5742889,0.01295 27.3810882,0.01295 L24.5329821,0.01295 C24.3397815,0.01295 24.1831922,0.169633333 24.1831922,0.36295 Z" id="Shape"></path>
                        </g>
                        <path d="M48,34.8308299 L55.0492788,46.7091135 C55.7818168,47.9435595 57.4043588,48.3665134 58.6731384,47.6537492 C59.9420372,46.9411008 60.3766764,45.3626137 59.6441384,44.1282836 L52.5949787,32.25 L48,34.8308299 Z" id="Shape" fill="#ED675A"></path>
                        <path d="M52.6933702,32.25 L48,34.9341928 L50.8067515,39.75 C51.6493852,39.4558138 52.4770545,39.0817237 53.2788097,38.62315 C54.0806865,38.1645763 54.8214888,37.6416456 55.5,37.0658072 L52.6933702,32.25 Z" id="Shape" fill="#CC3A60"></path>
                        <circle id="Oval" fill="#305AC7" cx="46.5" cy="26.25" r="11.25"></circle>
                        <circle id="Oval" fill="#EDEFF8" cx="46.5" cy="26.25" r="7.5"></circle>
                        <path d="M22.5,15 C20.8458,15 19.5,16.3457731 19.5,17.99994 C19.5,19.6541069 20.8458,21 22.5,21 C24.1542,21 25.5,19.6541069 25.5,17.99994 C25.5,16.3457731 24.1542,15 22.5,15 Z" id="Shape" fill="#F2C733"></path>
                        <path d="M14.25,19.5 C12.5958,19.5 11.25,20.8458662 11.25,22.5 C11.25,24.1541338 12.5958,25.5 14.25,25.5 C15.9042,25.5 17.25,24.1541338 17.25,22.5 C17.25,20.8458662 15.9042,19.5 14.25,19.5 Z" id="Shape" fill="#305AC7"></path>
                        <path d="M29.99994,19.5 C28.3457731,19.5 27,20.8458662 27,22.5 C27,24.1541338 28.3457731,25.5 29.99994,25.5 C31.6542269,25.5 33,24.1541338 33,22.5 C33,20.8458662 31.6541069,19.5 29.99994,19.5 Z" id="Shape" fill="#ED675A"></path>
                        <path d="M38.25,8.25 C36.5958,8.25 35.25,9.59589308 35.25,11.25006 C35.25,12.9042269 36.5958,14.25 38.25,14.25 C39.9042,14.25 41.25,12.9042269 41.25,11.25006 C41.25,9.59589308 39.9042,8.25 38.25,8.25 Z" id="Shape" fill="#61BCA9"></path>
                    </g>
                </g>
            </g>
        </g>
    </g>
</svg>