<?xml version="1.0" encoding="UTF-8"?>
<svg width="18px" height="19px" viewBox="0 0 18 19" version="1.1" xmlns="http://www.w3.org/2000/svg" xmlns:xlink="http://www.w3.org/1999/xlink">
    <!-- Generator: Sketch 51.3 (57544) - http://www.bohemiancoding.com/sketch -->
    <title>weekly</title>
    <desc>Created with Sketch.</desc>
    <defs></defs>
                    <path d="M16.4054207,2.6448203 L14.5320127,2.6448203 C14.5320127,1.91013108 14.5320127,1.17547992 14.5320127,0.440790698 C14.5320127,-0.146930233 13.6136702,-0.146930233 13.6136702,0.440790698 C13.6136702,1.17547992 13.6136702,1.91013108 13.6136702,2.6448203 L4.3567611,2.6448203 C4.3567611,1.91013108 4.3567611,1.17547992 4.3567611,0.440790698 C4.3567611,-0.146930233 3.4384186,-0.146930233 3.4384186,0.440790698 C3.4384186,1.17547992 3.4384186,1.91013108 3.4384186,2.6448203 L1.56501057,2.6448203 C0.72015222,2.6448203 0.0221860465,3.34274841 0.0221860465,4.18764482 L0.0221860465,17.3015772 C0.0221860465,18.1464355 0.720114165,18.8444017 1.56501057,18.8444017 L16.4421818,18.8444017 C17.2870402,18.8444017 17.9850063,18.1464736 17.9850063,17.3015772 L17.9850063,4.18764482 C17.9482452,3.34278647 17.2503171,2.6448203 16.4054207,2.6448203 Z M1.52828753,3.56316279 L3.40169556,3.56316279 C3.40169556,4.11416068 3.40169556,4.62843552 3.40169556,5.1794334 C3.40169556,5.76715433 4.32003805,5.76715433 4.32003805,5.1794334 C4.32003805,4.62843552 4.32003805,4.11416068 4.32003805,3.56316279 L13.5769471,3.56316279 C13.5769471,4.11416068 13.5769471,4.62843552 13.5769471,5.1794334 C13.5769471,5.76715433 14.4952896,5.76715433 14.4952896,5.1794334 C14.4952896,4.62843552 14.4952896,4.11416068 14.4952896,3.56316279 L16.3686977,3.56316279 C16.7360423,3.56316279 17.0299027,3.85702326 17.0299027,4.22436786 L17.0299027,7.31001691 C12.254537,7.31001691 7.47913319,7.31001691 2.70376744,7.31001691 C2.07928541,7.31001691 1.49156448,7.31001691 0.867082452,7.31001691 L0.867082452,4.22436786 C0.867082452,3.85702326 1.16094292,3.56316279 1.52828753,3.56316279 Z M16.4054207,17.9627822 L1.52828753,17.9627822 C1.16094292,17.9627822 0.867082452,17.6689218 0.867082452,17.3015772 L0.867082452,8.22835941 C5.71593235,8.22835941 10.5280592,8.22835941 15.3769091,8.22835941 C15.927907,8.22835941 16.4789049,8.22835941 17.0299408,8.22835941 L17.0299408,17.3015772 C17.0299027,17.6689218 16.7360423,17.9627822 16.4054207,17.9627822 Z" id="Shape"></path>
                    <circle id="Oval" cx="4.06290063" cy="11.4609387" r="1"></circle>
                    <circle id="Oval" cx="4.06290063" cy="15.0975476" r="1"></circle>
                    <circle id="Oval" cx="13.8708076" cy="11.4609387" r="1"></circle>
                    <circle id="Oval" cx="13.8708076" cy="15.0975476" r="1"></circle>
                    <circle id="Oval" cx="8.94851163" cy="11.4609387" r="1"></circle>
                    <circle id="Oval" cx="8.94851163" cy="15.0975476" r="1"></circle>
</svg>
