<?xml version="1.0" standalone="no"?><!DOCTYPE svg PUBLIC "-//W3C//DTD SVG 1.1//EN" "http://www.w3.org/Graphics/SVG/1.1/DTD/svg11.dtd"><svg t="1537263826201" class="icon" style="" viewBox="0 0 1024 1024" version="1.1" xmlns="http://www.w3.org/2000/svg" p-id="6187" xmlns:xlink="http://www.w3.org/1999/xlink" width="200" height="200"><defs><style type="text/css"></style></defs><path d="M146.2446 230.7471c0 0 3.2113-56.149 56.491-56.149 27.989 0 27.989 0 27.989 0l0 97.620992c0 0 0.683 42.837 42.24 42.923s84.053 0 84.053 0 42.496 0.939 42.496-42.837 0-97.707 0-97.707l225.024 0 0 98.731008c0 0-2.048 41.9738 42.752 41.8509s84.736 0 84.736 0 40.832-0.4649 40.96-42.3629 0-98.219 0-98.219l27.648 0c0 0 56.832-3.883 56.832 56.32s0 338.347 0 338.347l-85.248 83.2-83.456-82.688-197.12 195.328 112.64 112.128L202.87488 877.2331c0 0-56.5443-0.512-56.5443-56.32S146.2446 230.7471 146.2446 230.7471z" p-id="6188"></path><path d="M792.2196 961.7132 596.1226 764.5921 708.7626 652.4641 793.2426 735.9201 877.4666 652.4641 989.8506 764.5921Z" p-id="6189"></path><path d="M286.3626 118.4481l56.32 0 0 140.288-56.32 0 0-140.288Z" p-id="6190"></path><path d="M680.0906 118.4481l56.832 0 0 140.288-56.832 0 0-140.288Z" p-id="6191"></path></svg>