<?xml version="1.0" encoding="UTF-8"?>
<svg width="20px" height="20px" viewBox="0 0 20 20" version="1.1" xmlns="http://www.w3.org/2000/svg" xmlns:xlink="http://www.w3.org/1999/xlink">
    <!-- Generator: Sketch 51.3 (57544) - http://www.bohemiancoding.com/sketch -->
    <title>pie-chart</title>
    <desc>Created with Sketch.</desc>
    <defs></defs>
                    <path d="M17.2641509,10.490566 L9.48218029,10.490566 L9.48218029,2.70859539 C9.48218029,2.39412998 9.23060797,2.14255765 8.91614256,2.14255765 C4.00209644,2.14255765 0.00209643606,6.14255765 0.00209643606,11.0566038 C0.00209643606,15.9706499 4.00209644,19.9706499 8.91614256,19.9706499 C13.8301887,19.9706499 17.8301887,15.9706499 17.8301887,11.0566038 C17.8301887,10.7463312 17.5744235,10.490566 17.2641509,10.490566 Z M8.91614256,18.8385744 C4.62683438,18.8385744 1.13417191,15.3459119 1.13417191,11.0566038 C1.13417191,6.95597484 4.32075472,3.58490566 8.35010482,3.29559748 L8.35010482,11.0566038 C8.35010482,11.3710692 8.60167715,11.6226415 8.91614256,11.6226415 L16.6771488,11.6226415 C16.3878407,15.6519916 13.0167715,18.8385744 8.91614256,18.8385744 Z" id="Shape"></path>
                    <path d="M19.9685535,8.88469602 C19.9601677,6.721174 19.1677149,4.63731656 17.7379455,3.01467505 C16.0440252,1.09853249 13.6121593,0 11.0545073,0 C10.7400419,0 10.4884696,0.251572327 10.4884696,0.566037736 L10.4884696,8.91404612 C10.4884696,9.22851153 10.7400419,9.48008386 11.0545073,9.48008386 L19.4025157,9.48008386 C19.7169811,9.48008386 19.9685535,9.22851153 19.9685535,8.91404612 C19.9685535,8.90566038 19.9685535,8.89727463 19.9685535,8.88469602 Z M11.6205451,8.35220126 L11.6205451,1.1572327 C13.6415094,1.30398323 15.5366876,2.23899371 16.8867925,3.76939203 C18.0188679,5.04821803 18.6897275,6.65828092 18.8155136,8.35220126 L11.6205451,8.35220126 Z" id="Shape"></path>
</svg>
