<?xml version="1.0" standalone="no"?>
<!DOCTYPE svg PUBLIC "-//W3C//DTD SVG 1.1//EN" "http://www.w3.org/Graphics/SVG/1.1/DTD/svg11.dtd">
<svg t="1538139383618" class="icon" style="" viewBox="0 0 1024 1024" version="1.1" xmlns="http://www.w3.org/2000/svg" p-id="1467" xmlns:xlink="http://www.w3.org/1999/xlink" width="200" height="200">
  <defs>
  <style type="text/css"></style></defs>
  <path d="M998.735593 504.71406c-2.210341-2.578732-55.227836-63.925938-141.328819-125.989459-50.735521-36.56273-102.46365-65.73719-153.751756-86.704734-64.703651-26.452465-128.916115-39.868009-190.846606-39.868009s-126.142955 13.415544-190.846606 39.868009c-51.288107 20.967544-103.016235 50.142004-153.741523 86.704734-86.111217 62.063521-139.128711 123.410728-141.339052 125.989459-6.579859 7.664563-6.579859 18.98233 0 26.657126 2.210341 2.578732 55.227836 63.915705 141.339052 125.979226 50.725288 36.572964 102.453417 65.747423 153.741523 86.714967 64.703651 26.452465 128.916115 39.868009 190.846606 39.868009s126.142955-13.415544 190.846606-39.868009c51.288107-20.967544 103.016235-50.142004 153.751756-86.714967 86.100984-62.063521 139.118478-123.400494 141.328819-125.979226C1005.315452 523.69639 1005.315452 512.378623 998.735593 504.71406zM359.343181 321.480852c52.270481-18.859533 103.793948-28.396747 153.465231-28.396747 49.671283 0 101.204983 9.537214 153.475464 28.40698 32.929993 37.350676 51.03228 85.251639 51.03228 135.188982 0 54.644551-21.264303 106.004289-59.883879 144.623865s-89.979314 59.883879-144.623865 59.883879-106.004289-21.264303-144.623865-59.883879c-38.609343-38.619576-59.883879-89.979314-59.883879-144.623865C308.300668 406.763191 326.413188 358.841761 359.343181 321.480852zM833.471642 624.144126c-48.115857 34.69008-97.009428 62.278415-145.299247 82.028225-59.771315 24.436552-118.77515 36.82879-175.363983 36.82879-56.425104 0-115.244744-12.320607-174.831864-36.613896-48.197722-19.647479-96.988961-47.12325-145.012721-81.659835-59.198264-42.559305-102.760408-85.599563-122.786511-106.689904 20.036335-21.090341 63.588247-64.130599 122.786511-106.689904 32.530904-23.39278 65.409732-43.551912 98.227162-60.211337-15.57472 32.674167-23.822568 68.653613-23.822568 105.543801 0 65.573461 25.53149 127.217427 71.877027 173.562964 46.345538 46.355771 107.989503 71.877027 173.562964 71.877027s127.217427-25.521257 173.562964-71.877027c46.355771-46.345538 71.877027-107.989503 71.877027-173.562964 0-36.890188-8.237615-72.869634-23.791869-105.533568 32.807197 16.669658 65.675792 36.818557 98.206696 60.201104 59.198264 42.569538 102.760408 85.609797 122.786511 106.700137C935.556669 539.015284 892.403846 581.666686 833.471642 624.144126z" p-id="1468"></path><path d="M615.0674 456.680067c0 56.455803-45.803185 102.258988-102.258988 102.258988s-102.258988-45.803185-102.258988-102.258988c0-56.44557 45.803185-102.258988 102.258988-102.258988S615.0674 400.234497 615.0674 456.680067z" p-id="1469"></path>
</svg>
