<?xml version="1.0" standalone="no"?><!DOCTYPE svg PUBLIC "-//W3C//DTD SVG 1.1//EN" "http://www.w3.org/Graphics/SVG/1.1/DTD/svg11.dtd"><svg t="1538139379185" class="icon" style="" viewBox="0 0 1024 1024" version="1.1" xmlns="http://www.w3.org/2000/svg" p-id="1337" xmlns:xlink="http://www.w3.org/1999/xlink" width="200" height="200"><defs><style type="text/css"></style></defs><path d="M872.326579 504.591263c-4.01136 4.175089-9.383718 6.2831-14.756075 6.2831-5.106298 0-10.212596-1.893116-14.183024-5.710049-28.427446-27.322275-74.363661-66.760496-131.730207-99.506295-67.753103-38.670741-134.298705-58.277288-197.764156-58.277288-59.771315 0-180.981934 19.493983-321.29768 150.026922-8.278547 7.695263-21.223371 7.224542-28.918633-1.054005-7.705496-8.268314-7.234775-21.223371 1.043772-28.918633 64.621786-60.119239 195.922205-160.986531 349.172541-160.986531 70.669526 0 144.04058 21.417799 218.056318 63.659879 61.009516 34.82311 109.698424 76.614935 139.804093 105.543801C879.899044 483.480456 880.165104 496.435513 872.326579 504.591263z" p-id="1338"></path><path d="M998.735593 466.831264c-2.210341 2.578732-55.227836 63.915705-141.328819 125.989459-50.735521 36.56273-102.46365 65.73719-153.751756 86.704734-64.703651 26.452465-128.916115 39.868009-190.846606 39.868009s-126.142955-13.415544-190.846606-39.868009c-51.288107-20.967544-103.016235-50.142004-153.741523-86.704734-86.111217-62.073754-139.128711-123.410728-141.339052-125.989459-7.367805-8.575306-6.375198-21.499663 2.200108-28.857235 8.585539-7.367805 21.499663-6.375198 28.857235 2.200108 0.511653 0.593518 52.618405 60.774155 135.01502 120.023584 48.033993 34.526351 96.825232 62.002123 145.022954 81.649602 59.58712 24.293289 118.40676 36.613896 174.831864 36.613896 56.588833 0 115.592668-12.392238 175.363983-36.82879 48.28982-19.739577 97.18339-47.338145 145.299247-82.017992 82.191954-59.249429 133.694955-118.846782 134.206608-119.440299 7.357572-8.575306 20.281929-9.567913 28.857235-2.200108C1005.110791 445.331601 1006.103398 458.255958 998.735593 466.831264z" p-id="1339"></path></svg>