<?xml version="1.0" encoding="UTF-8"?>
<svg width="35px" height="35px" viewBox="0 0 35 35" version="1.1" xmlns="http://www.w3.org/2000/svg" xmlns:xlink="http://www.w3.org/1999/xlink">
    <!-- Generator: Sketch 51.3 (57544) - http://www.bohemiancoding.com/sketch -->
    <title>lg_white</title>
    <desc>Created with Sketch.</desc>
    <defs>
        <linearGradient x1="79.0244611%" y1="62.7151465%" x2="5.37478663%" y2="62.7151489%" id="linearGradient-1">
            <stop stop-color="#FFFFFF" offset="0%"></stop>
            <stop stop-color="#CACACA" offset="100%"></stop>
        </linearGradient>
        <linearGradient x1="50%" y1="1.67668658%" x2="50%" y2="100%" id="linearGradient-2">
            <stop stop-color="#CACACA" offset="0%"></stop>
            <stop stop-color="#FFFFFF" offset="100%"></stop>
        </linearGradient>
        <linearGradient x1="88.0896731%" y1="32.6624597%" x2="7.91644795%" y2="32.6624602%" id="linearGradient-3">
            <stop stop-color="#FFFFFF" offset="0%"></stop>
            <stop stop-color="#DFDFDF" offset="100%"></stop>
        </linearGradient>
    </defs>
    <g id="Page-1" stroke="none" stroke-width="1" fill="none" fill-rule="evenodd">
        <g id="Dashboard" transform="translate(-1354.000000, -7.000000)">
            <g id="lg_white" transform="translate(1354.000000, 7.000000)">
                <path d="M3,0 L32,0 C33.6568542,-3.04359188e-16 35,1.34314575 35,3 L35,32 C35,33.6568542 33.6568542,35 32,35 L3,35 C1.34314575,35 1.53517375e-15,33.6568542 1.33226763e-15,32 L0,3 C-2.02906125e-16,1.34314575 1.34314575,1.63662682e-15 3,0 Z" id="Rectangle" fill="#2258CE" fill-rule="nonzero"></path>
                <g id="Group-5-Copy" transform="translate(8.000000, 7.000000)">
                    <path d="M14.9329023,13.3923954 C14.2907833,13.4538688 13.6777894,13.7646004 13.3409204,13.9705236 C13.0040514,14.1764468 12.7465592,14.3979207 12.434369,14.5251024 C12.1221788,14.652284 11.6653742,14.8089202 11.4881292,14.8387747 C11.3108842,14.8686292 10.7683978,14.9151637 10.4995896,14.9151637 C10.2307813,14.9151637 9.6162348,14.8015566 9.50890913,14.7646913 C9.40158345,14.727826 8.87594171,14.5543452 8.70027296,14.4476547 C8.52460421,14.3409642 8.16427978,14.1672717 7.86472304,13.8916409 C7.5651663,13.6160101 7.30014575,13.3805382 7.07415486,13.0103329 C6.84816396,12.6401275 6.65960296,12.3306428 6.54239636,11.907998 C6.42518975,11.4853531 6.32681148,11.2513356 6.34562477,10.4867444 C6.36443807,9.72215316 6.46669849,9.48300591 6.52731444,9.27939317 C6.5879304,9.07578042 6.74542586,8.75662953 6.79305428,8.66761886 C6.82480655,8.60827841 6.90157586,8.4737096 7.02336219,8.26391245 L6.73340407,8.61922584 C6.69196691,8.66572893 6.62829768,8.78188471 6.54239636,8.96769317 C6.41354438,9.24640586 6.29810223,9.50396866 6.1728262,9.82004066 C6.04755017,10.1361127 5.89227848,10.6933734 5.83628657,11.0093042 C5.78029465,11.3252351 5.71023418,11.822575 5.71023418,12.1242961 C5.71023418,12.4260173 5.77375442,13.225196 5.77375442,13.3923954 C5.77375442,13.5595947 5.91389889,14.1597669 5.95958641,14.3174147 C6.00527393,14.4750625 6.15859296,14.9475119 6.22415996,15.1237453 C6.28972696,15.2999787 6.61567989,15.9959017 6.65289805,16.047259 C6.6901162,16.0986163 7.11520775,16.7660728 7.22396852,16.9084758 C7.33272928,17.0508788 7.72403748,17.4984377 7.86472304,17.6418993 C8.00540861,17.7853609 8.69956718,18.3744053 8.828725,18.4725793 C8.95788282,18.5707534 9.41198195,18.8463136 9.53396433,18.9173151 C9.65594671,18.9883166 9.92012033,19.1014062 10.1526279,19.2191304 C10.3851355,19.3368545 10.5934349,19.4025156 10.7584228,19.4637539 C10.9234107,19.5249921 11.3073788,19.6325295 11.5868679,19.6842397 C11.8663569,19.7359498 12.4664114,19.8591085 12.7516879,19.8591085 C13.0369643,19.8591085 13.7153134,19.8646136 14.0423485,19.824243 C14.3693837,19.7838723 15.0867624,19.6504798 15.2399638,19.5988873 C15.3931652,19.5472947 16.0751138,19.3187866 16.2235394,19.2484438 C16.3719651,19.178101 17.0872147,18.7901452 17.2813161,18.6825608 C17.4754175,18.5749763 17.9752865,18.2184102 18.0219033,18.1847327 C18.06852,18.1510552 18.2002187,18.0436766 18.2806306,17.9133895 C18.3610425,17.7831024 18.5014239,17.5370944 18.5173258,17.1742257 C18.5268693,16.9564505 18.5279712,16.7246938 18.4917278,16.4312271 C18.4310154,15.9396318 18.2422485,15.3462776 17.9209884,14.8387747 C17.6730892,14.447162 17.3871612,14.1338145 17.0249766,13.8916409 C16.1934261,13.3356271 15.5750213,13.3309219 14.9329023,13.3923954 Z" id="Path-9" fill="url(#linearGradient-1)"></path>
                    <path d="M13.7355017,7.50951551 C13.6537424,7.41563047 13.5950087,7.34907243 13.5593007,7.30984141 C13.4603463,7.20112408 13.3791235,7.1184443 13.3167945,7.05769253 C13.1685858,6.91323413 12.9991815,6.76035312 12.848421,6.63272449 C12.6976604,6.50509586 12.3777125,6.25649059 12.0440595,6.04672289 C11.7104065,5.8369552 11.1893622,5.55994951 10.9306567,5.46176418 C10.7011624,5.37466522 10.402877,5.26365864 10.084873,5.17262947 C9.76042521,5.07975575 9.41569086,5.00735358 9.12689371,4.96942352 C8.84681651,4.92845885 8.48232797,4.88658254 7.99740388,4.89289339 C7.51789666,4.89289339 7.10151561,4.94233625 6.80727575,4.99484338 C6.65138759,5.02266163 6.24837999,5.09422902 5.80720841,5.23322072 C5.36603683,5.37221241 4.99162378,5.52857261 4.74500887,5.65618316 C4.48085585,5.79286878 4.10339564,5.99471075 3.74387109,6.24673317 C3.38434654,6.4987556 3.06454091,6.77894772 2.89220585,6.94705557 C2.73281405,7.10253763 2.42400635,7.40772629 2.14441973,7.76119681 C1.81499376,8.17767728 1.51272215,8.68436349 1.41880687,8.88270544 C1.33585582,9.05789177 1.1491164,9.41481683 1.00861905,9.81594714 C0.868121689,10.2170774 0.753597052,10.6591783 0.705121699,10.8886746 C0.656646347,11.1181708 0.598031282,11.5748461 0.58550368,11.7609604 C0.572976077,11.9470747 0.558040849,12.2470117 0.557166596,12.4277817 C0.555846268,12.7007869 0.571893881,12.9365318 0.58550368,13.071677 C0.592277966,13.1389456 0.67277343,13.7473206 0.705121699,13.9044861 C0.737469969,14.0616516 0.830256569,14.449478 0.928630598,14.7178628 C0.968974117,14.8279283 1.03779412,15.0688834 1.1536334,15.3347501 C1.32025774,15.7171754 1.56751338,16.1618839 1.84269859,16.5798174 C2.30919593,17.2883033 3.09699981,18.1185481 3.49714202,18.4689446 C3.69619254,18.6432491 4.01705517,18.9426291 4.49490381,19.2732637 C4.97275245,19.6038983 5.42240516,19.8716714 5.89237258,20.1090489 C6.36234001,20.3464264 6.76712861,20.5207071 7.38282793,20.7221015 C7.99852725,20.923496 8.56156358,21.0376677 9.19378993,21.1294898 C9.51135846,21.1756122 9.93547105,21.2259935 10.5231862,21.2259935 C11.1109013,21.2259935 11.8060635,21.1627405 12.2345155,21.1021761 C12.4405563,21.0730509 12.8954554,20.9982028 13.4904518,20.8284509 C14.0854482,20.6586989 14.6044162,20.4550304 14.8182483,20.3601891 C15.0136678,20.2735144 15.4661194,20.0723718 15.8422651,19.8543563 C16.2184108,19.6363407 16.7262362,19.3000535 16.8942073,19.1686435 C17.0552054,19.0426888 17.3544232,18.8337742 17.7409321,18.481531 C17.8270442,18.4030531 17.9755443,18.2557371 18.1864324,18.0395831 C17.7797931,18.3526516 17.4034788,18.6030389 17.0574896,18.7907452 C16.5385057,19.0723045 15.7396446,19.4141728 15.2393874,19.5528351 C14.7391303,19.6914974 14.1365055,19.8078747 13.3804618,19.8274954 C12.9465228,19.8387569 12.3544864,19.7919594 11.9940444,19.7330797 C11.6336023,19.6741999 11.2771632,19.5836642 10.9422139,19.4802868 C10.5212387,19.3503586 10.0931618,19.1506919 9.69057701,18.9492046 C9.34131442,18.7744042 9.05821539,18.5598491 8.77564443,18.3698648 C8.65415741,18.2881839 8.37532501,18.0564528 8.06625864,17.774933 C7.82652481,17.5565663 7.5923977,17.2865833 7.39153843,17.0391158 C7.24904802,16.8635612 7.12029484,16.6910136 7.03189037,16.5462164 C6.79127176,16.1521084 6.47588052,15.6495658 6.26311316,15.0866095 C6.14627121,14.77746 6.03726601,14.4719237 5.9679205,14.1561027 C5.89034876,13.8028169 5.81307727,13.3700964 5.77027257,12.8362874 C5.74384836,12.5067563 5.75990484,12.1372222 5.78531746,11.7277828 C5.81328755,11.2771381 5.87789505,10.919268 6.01897331,10.3999147 C6.16005157,9.88056134 6.33327362,9.4819836 6.40793342,9.32713538 C6.44619609,9.24777666 6.64746354,8.85409781 6.88534683,8.47674054 C7.12323012,8.09938327 7.35418241,7.80185969 7.47181508,7.68589004 C7.59929993,7.56020749 7.86337029,7.28085442 8.17512978,7.06670786 C8.48688926,6.8525613 8.82991809,6.67311102 9.06878445,6.58234353 C9.5579491,6.39646449 10.242462,6.24673317 10.8639723,6.29389107 C11.1992732,6.31933246 11.4986747,6.35065346 11.8291976,6.45163299 C11.9474601,6.48776392 12.0601596,6.52246727 12.1610732,6.56011145 C12.3421952,6.62767607 12.4873599,6.69636535 12.5728578,6.74045893 C12.7059915,6.8091196 12.9088273,6.91379993 13.1383909,7.07903356 C13.254045,7.16227831 13.3678048,7.25190566 13.5035205,7.36811241 C13.5414507,7.40059025 13.6052945,7.4602679 13.6950516,7.54714537 L13.7355017,7.50951551 Z" id="Path-8" fill="url(#linearGradient-2)"></path>
                    <path d="M13.75152,7.61527671 C14.3966974,8.10358266 15.7160363,8.01503075 16.5313538,7.71192158 C17.3466714,7.40881241 17.9487491,6.82590836 18.3336347,6.04373896 C18.7185203,5.26156956 18.6487892,4.04468648 18.2225449,3.40586108 C17.7963005,2.76703569 17.4260246,2.47524254 16.946188,2.12016441 C16.3047136,1.64547463 15.63163,1.25051382 14.9294204,0.938640917 C14.2376531,0.656666975 13.533289,0.397642203 12.8152316,0.25074026 C11.8469715,0.0526512199 10.9183148,-0.0351426072 9.80032586,0.0526512199 C7.85001928,0.205805573 6.28603338,0.897093976 5.44415496,1.37248415 C4.60227654,1.84787432 3.27689147,2.75661367 2.17571224,4.23009499 C1.87757862,4.62902581 1.61455189,5.01116907 1.38092998,5.43497981 C1.2300931,5.70861123 1.1133451,5.94053033 0.951952879,6.29770123 C0.620801994,7.03055848 0.320765987,7.97438813 0.156121551,8.92834767 C0.0634752396,9.46514585 0.0487011723,9.92551054 0.0337833565,10.3395892 C4.70520282e-05,11.2760186 0.107602608,11.9554111 0.183926379,12.4252409 C0.293439976,13.0993788 0.42044219,13.5922058 0.678184413,14.2969941 C0.909299514,14.9289714 1.2022545,15.5025748 1.32383235,15.6912869 C1.27978306,15.5006573 0.982879904,14.8547826 0.785815928,14.0256686 C0.668396805,13.5316471 0.602407121,12.9471218 0.602407121,12.4252409 C0.602407121,11.7419905 0.65642285,10.9118124 1.01255965,9.95623276 C1.36869646,9.00065311 1.65310725,8.48404942 2.17571224,7.81658882 C2.45471823,7.46024797 2.83138132,7.05262937 3.22878077,6.70752545 C3.6002555,6.38493471 3.99059633,6.11914134 4.3154709,5.94053033 C5.0524233,5.53536532 5.72395822,5.27642521 6.2394754,5.15836094 C6.61462137,5.07244463 7.01077793,4.99615769 7.41895212,4.96885889 C8.23398736,4.91434912 9.22330331,4.98036311 9.84958934,5.15836094 C10.4758754,5.33635876 10.7238396,5.40893652 11.076965,5.57851203 C11.6581652,5.85761199 12.0781417,6.12352989 12.449261,6.3938531 C12.6883323,6.56799266 12.9351437,6.8014413 13.1218697,6.99715421 C13.3085957,7.19286713 13.3498015,7.29478182 13.75152,7.61527671 Z" id="Path-6" fill="url(#linearGradient-3)"></path>
                </g>
            </g>
        </g>
    </g>
</svg>