<?xml version="1.0" encoding="UTF-8"?>
<svg width="18px" height="28px" viewBox="0 0 18 28" version="1.1" xmlns="http://www.w3.org/2000/svg" xmlns:xlink="http://www.w3.org/1999/xlink">
    <!-- Generator: Sketch 51.3 (57544) - http://www.bohemiancoding.com/sketch -->
    <title>projects</title>
    <desc>Created with Sketch.</desc>
    <defs></defs>
                    <path d="M9.09952632,6.14747368 C7.88852632,6.14747368 6.90326316,7.13263158 6.90326316,8.34357895 C6.90326316,9.55457895 7.88852632,10.5397895 9.09952632,10.5397895 C10.3105263,10.5397895 11.2957895,9.55457895 11.2957895,8.34357895 C11.2957368,7.13263158 10.3105263,6.14747368 9.09952632,6.14747368 Z M9.09952632,9.68647368 C8.359,9.68647368 7.75652632,9.084 7.75652632,8.34352632 C7.75652632,7.60310526 8.359,7.00063158 9.09952632,7.00063158 C9.84005263,7.00063158 10.4425263,7.60305263 10.4425263,8.34352632 C10.4425263,9.08405263 9.84005263,9.68647368 9.09952632,9.68647368 Z"></path>
                    <path d="M17.8283158,18.5713158 L17.8283158,12.2727368 C17.8283158,12.1591579 17.783,12.0502105 17.7024211,11.9701053 L13.603,7.89615789 L13.603,6.99673684 C13.603,5.52947368 13.188,4.10289474 12.4028947,2.87115789 C11.6390526,1.67278947 10.5614737,0.710052632 9.28678947,0.0870526316 C9.16857895,0.0292631579 9.03042105,0.0292631579 8.91215789,0.0870526316 C7.63747368,0.710052632 6.55994737,1.67278947 5.79615789,2.87115789 C5.01105263,4.10284211 4.59605263,5.52952632 4.59605263,6.99673684 L4.59605263,7.89615789 L0.496526316,11.9701053 C0.415947368,12.0502105 0.370631579,12.1591053 0.370631579,12.2727368 L0.370631579,18.5713158 C0.370631579,18.8068947 0.561631579,18.9979474 0.797263158,18.9979474 L4.59605263,18.9979474 C4.59605263,19.8453684 5.27178947,20.5211053 6.10242105,20.5211053 L6.73568421,20.5211053 C6.48405263,21.0473158 6.35294737,21.6222632 6.35294737,22.2166842 C6.35294737,23.8724211 7.39815789,25.365 8.95368421,25.9306842 C9.00078947,25.9477895 9.05010526,25.9563684 9.09952632,25.9563684 C9.14884211,25.9563684 9.19821053,25.9478421 9.24531579,25.9306842 C10.8008947,25.3649474 11.8461053,23.8723684 11.8461053,22.2166842 C11.8461053,21.6222632 11.7150526,21.0473158 11.4634211,20.5211053 L12.0967368,20.5211053 C12.9273684,20.5211053 13.6030526,19.8453684 13.6030526,19.0147895 L17.4016842,18.9979474 C17.6373684,18.9978947 17.8283158,18.8068947 17.8283158,18.5713158 Z M4.59605263,17.3716316 L4.59605263,18.1447895 L1.22384211,18.1447895 L1.22384211,12.4502105 L4.59605263,9.09910526 L4.59605263,17.3716316 Z M6.10242105,19.6678421 C5.74226316,19.6678947 5.44926316,19.3748947 5.44926316,19.0147368 L5.44926316,18.5713158 L5.44926316,17.7981579 L8.67289474,17.7981579 L8.67289474,19.6678421 L6.10242105,19.6678421 Z M9.09952632,25.0715789 C7.96089474,24.5905263 7.20615789,23.4625263 7.20615789,22.2166316 C7.20615789,21.6172105 7.37594737,21.0425789 7.69915789,20.5425263 L8.67289474,20.5425263 L8.67289474,21.3306842 C8.67289474,21.5662632 8.86389474,21.7573158 9.09952632,21.7573158 C9.33521053,21.7573158 9.52615789,21.5663158 9.52615789,21.3306842 L9.52615789,20.5425263 L10.4999474,20.5425263 C10.8231053,21.0425789 10.9928947,21.6171579 10.9928947,22.2166316 C10.9928421,23.4625263 10.2382105,24.5905263 9.09952632,25.0715789 Z M12.7498421,19.0147368 L12.7497895,19.0147368 C12.7497895,19.3748947 12.4567895,19.6678421 12.0966842,19.6678421 L9.52615789,19.6678421 L9.52615789,17.7981579 L12.7498421,17.7981579 L12.7498421,19.0147368 Z M16.9751053,18.1446842 L13.603,18.1446842 L13.603,17.3715789 L13.603,14.7415789 C13.603,14.506 13.4120526,14.3149474 13.1763684,14.3149474 C12.9406842,14.3149474 12.7497368,14.5059474 12.7497368,14.7415789 L12.7497368,16.945 L9.52605263,16.945 L9.52605263,15.812 C9.52605263,15.5764211 9.33510526,15.3853684 9.09942105,15.3853684 C8.86384211,15.3853684 8.67278947,15.5763684 8.67278947,15.812 L8.67278947,16.945 L5.44915789,16.945 L5.44915789,8.07368421 L5.44915789,6.99673684 C5.44915789,4.43468421 6.84242105,2.13626316 9.09942105,0.948631579 C11.3564737,2.13621053 12.7497368,4.43463158 12.7497368,6.99673684 L12.7497368,15.2911053 C12.7497368,15.5266842 12.9406842,15.7177368 13.1763684,15.7177368 C13.412,15.7177368 13.603,15.5267368 13.603,15.2911053 L13.603,9.09905263 L16.9751053,12.4501579 L16.9751053,18.1446842 Z"></path>
</svg>
