<?xml version="1.0" encoding="UTF-8"?>
<svg width="22px" height="22px" viewBox="0 0 22 22" version="1.1" xmlns="http://www.w3.org/2000/svg" xmlns:xlink="http://www.w3.org/1999/xlink">
    <!-- Generator: Sketch 51.3 (57544) - http://www.bohemiancoding.com/sketch -->
    <title>holidays</title>
    <desc>Created with Sketch.</desc>
    <defs></defs>
                    <path d="M14.7717739,4.1585575 C14.5784795,4.1585575 14.3847563,4.16545809 14.1902144,4.1788694 L14.9715789,3.75083821 C15.1047953,3.67773879 15.1876413,3.53805068 15.1876413,3.38615984 L15.1876413,3.06452242 L15.6733333,3.21964912 C15.7793372,3.25294347 15.897115,3.2419883 15.9974269,3.18920078 L18.9112671,1.61348928 C19.0907602,1.51641326 19.1732164,1.30362573 19.1061988,1.1111501 C19.0416374,0.925575049 18.5794932,3.89863548e-05 15.8024951,3.89863548e-05 C13.9587524,0 11.3157895,1.79988304 9.98050682,3.86413255 C8.64522417,1.79988304 6.00226121,0 4.1585575,0 C1.38159844,0 0.919454191,0.925536062 0.854853801,1.11111111 C0.787836257,1.30362573 0.870292398,1.51641326 1.04978558,1.61345029 L3.96362573,3.18916179 C4.06272904,3.24194932 4.18050682,3.25290448 4.2877193,3.21961014 L4.77341131,3.06448343 L4.77341131,3.38612086 C4.77341131,3.5380117 4.85625731,3.67769981 4.98947368,3.75079922 L5.77083821,4.17883041 C5.5762963,4.1654191 5.38261209,4.15851852 5.18927875,4.15851852 C2.18241715,4.1585575 0,5.73263158 0,7.90124756 C0,8.02346979 0.0536062378,8.13964912 0.147017544,8.21840156 C0.24,8.29719298 0.363469786,8.33169591 0.484093567,8.31138402 L3.33578947,7.83625731 C3.46452242,7.81473684 3.57578947,7.73430799 3.6362963,7.61859649 L3.88729045,7.13695906 L4.03918129,7.42853801 C4.12241715,7.5877193 4.29785575,7.67423002 4.47614035,7.64619883 L7.70339181,7.10830409 C6.84230019,9.61793372 6.97637427,13.2267836 7.19789474,15.5842495 C3.37450292,16.1216764 0.831734893,17.6878752 0.831734893,19.5451852 C0.831695906,19.7750097 1.01769981,19.9610136 1.24756335,19.9610136 L18.7134503,19.9610136 C18.9433138,19.9610136 19.1293177,19.7750097 19.1293177,19.5451462 C19.1293177,17.4527096 15.8895906,15.74846 11.391306,15.4419883 C10.5359064,13.2501754 9.62319688,9.81637427 10.6405068,6.83879142 L15.4849123,7.64619883 C15.6607407,7.67341131 15.8382456,7.5877193 15.9218713,7.42853801 L16.0737622,7.13695906 L16.3247563,7.61859649 C16.3852632,7.73434698 16.4965302,7.81473684 16.6252632,7.83625731 L19.4769591,8.311423 C19.4996881,8.31508772 19.5224561,8.31711501 19.5451852,8.31711501 C19.6430409,8.31711501 19.7384795,8.28261209 19.8140351,8.21844055 C19.9074464,8.13964912 19.9610526,8.02350877 19.9610526,7.90128655 C19.9610136,5.73263158 17.7785965,4.1585575 14.7717739,4.1585575 Z M12.42,17.67423 C12.4099025,17.6565692 12.117232,17.1338012 11.7493567,16.3007407 C15.131423,16.6067446 17.7734113,17.7693957 18.2281481,19.1293177 L1.73407407,19.1293177 C2.14760234,17.9158285 4.33996101,16.8392593 7.2837037,16.4176998 C7.38319688,17.2867057 7.47727096,17.8676413 7.49107212,17.9504094 C7.52479532,18.1506043 7.69820663,18.2976218 7.90124756,18.2976218 L12.0598051,18.2976218 C12.20846,18.2976218 12.3453021,18.2184405 12.420039,18.0900975 C12.4939181,17.9613255 12.494308,17.802963 12.42,17.67423 Z M11.3690058,17.4658869 L8.25863548,17.4658869 C8.04487329,15.9788304 7.32077973,10.0938791 8.66007797,6.9488499 L9.78580897,6.76120858 C8.45653021,10.9699415 10.5203899,15.7709942 11.3690058,17.4658869 Z M16.9663938,7.05001949 L16.4424951,6.04530214 C16.2995322,5.77076023 15.8487719,5.77076023 15.7049903,6.04530214 L15.3240546,6.7762963 L10.0487329,5.89707602 C10.0040546,5.88974659 9.95695906,5.88974659 9.9122807,5.89707602 L4.63692008,6.7762963 L4.25598441,6.04530214 C4.11220273,5.77076023 3.6614425,5.77076023 3.51847953,6.04530214 L2.9945809,7.05001949 L0.887290448,7.40089669 C1.21224172,5.97789474 2.92155945,4.99025341 5.18923977,4.99025341 C6.32471735,4.99025341 7.49430799,5.25017544 8.66553606,5.76226121 C8.86939571,5.85243665 9.10736842,5.76471735 9.20526316,5.56487329 C9.30354776,5.36506823 9.22678363,5.1234308 9.03185185,5.01660819 L5.60510721,3.13957115 L5.60510721,2.49512671 C5.60510721,2.36233918 5.54175439,2.23766082 5.43454191,2.15925926 C5.32693957,2.08128655 5.18803119,2.05933723 5.06296296,2.09875244 L4.20362573,2.37329435 L1.9757115,1.16877193 C2.31520468,1.00877193 2.96132554,0.831695906 4.1585575,0.831695906 C5.89711501,0.831695906 8.59610136,2.83949318 9.6077193,4.88545809 C9.74822612,5.16892788 10.2128265,5.16892788 10.3533333,4.88545809 C11.3649123,2.83949318 14.0639376,0.831695906 15.8024561,0.831695906 C17.0081871,0.831695906 17.6551267,1.01161793 17.9897466,1.16592593 L15.7573879,2.37329435 L14.8980507,2.09875244 C14.771345,2.0585575 14.6336842,2.08046784 14.5264717,2.15925926 C14.4192593,2.23762183 14.3559064,2.36230019 14.3559064,2.49512671 L14.3559064,3.13961014 L10.9291618,5.01664717 C10.73423,5.12346979 10.6574659,5.36510721 10.7557505,5.56491228 C10.8536062,5.76471735 11.0916179,5.85243665 11.2954776,5.76230019 C12.4667057,5.25017544 13.6362963,4.99025341 14.7717739,4.99025341 C17.0394932,4.99025341 18.7487719,5.97789474 19.0736842,7.40089669 L16.9663938,7.05001949 Z"></path>
</svg>
