<?xml version="1.0" encoding="UTF-8"?>
<svg width="22px" height="22px" viewBox="0 0 22 22" version="1.1" xmlns="http://www.w3.org/2000/svg" xmlns:xlink="http://www.w3.org/1999/xlink">
    <!-- Generator: Sketch 51.3 (57544) - http://www.bohemiancoding.com/sketch -->
    <title>absence</title>
    <desc>Created with Sketch.</desc>
    <defs></defs>
                    <path d="M10,0 C4.48615385,0 0,4.48576923 0,10 C0,15.5142308 4.48615385,20 10,20 C15.5138462,20 20,15.5142308 20,10 C20,4.48576923 15.5138462,0 10,0 Z M10,19.2307692 C4.91038462,19.2307692 0.769230769,15.0896154 0.769230769,10 C0.769230769,4.91038462 4.91038462,0.769230769 10,0.769230769 C15.0896154,0.769230769 19.2307692,4.91038462 19.2307692,10 C19.2307692,15.0896154 15.0896154,19.2307692 10,19.2307692 Z"></path>
                    <path d="M13.7334615,6.26653846 C13.5830769,6.11615385 13.34,6.11615385 13.1896154,6.26653846 L10,9.45615385 L6.81038462,6.26653846 C6.66,6.11615385 6.41692308,6.11615385 6.26653846,6.26653846 C6.11615385,6.41692308 6.11615385,6.66 6.26653846,6.81038462 L9.45615385,10 L6.26653846,13.1896154 C6.11615385,13.34 6.11615385,13.5830769 6.26653846,13.7334615 C6.34153846,13.8084615 6.44,13.8461538 6.53846154,13.8461538 C6.63692308,13.8461538 6.73538462,13.8084615 6.81038462,13.7334615 L10,10.5438462 L13.1896154,13.7334615 C13.2646154,13.8084615 13.3630769,13.8461538 13.4615385,13.8461538 C13.56,13.8461538 13.6584615,13.8084615 13.7334615,13.7334615 C13.8838462,13.5830769 13.8838462,13.34 13.7334615,13.1896154 L10.5438462,10 L13.7334615,6.81038462 C13.8838462,6.66 13.8838462,6.41692308 13.7334615,6.26653846 Z"></path>
</svg>
