<?xml version="1.0" standalone="no"?><!DOCTYPE svg PUBLIC "-//W3C//DTD SVG 1.1//EN" "http://www.w3.org/Graphics/SVG/1.1/DTD/svg11.dtd"><svg t="1537263353029" class="icon" style="" viewBox="0 0 1024 1024" version="1.1" xmlns="http://www.w3.org/2000/svg" p-id="7392" xmlns:xlink="http://www.w3.org/1999/xlink" width="200" height="200"><defs><style type="text/css"></style></defs><path d="M353.667326 434.652913l343.203107 0c46.057075 0 83.531315-37.472721 83.531315-83.527974L780.401748 83.5462c0-46.065378-37.47424-83.546199-83.531315-83.546199L353.667335 0c-46.057075 0-83.531315 37.480822-83.531315 83.546199l0 267.578803C270.136011 397.180192 307.610251 434.652913 353.667326 434.652913zM326.83207 83.546164c0-14.810417 12.042456-26.85338 26.835255-26.85338l343.203107 0c14.792799 0 26.834243 12.04195 26.834243 26.85338l0 267.578803c0 14.792191-12.040431 26.835154-26.834243 26.835154L353.667335 377.960121c-14.792799 0-26.835255-12.043975-26.835255-26.835154L326.83208 83.5462zM927.41098 321.265452l-55.182307 0c-48.068775 0-91.836918 41.209473-91.836918 86.460268l0 50.642926c-8.461432-2.89797-17.392375-4.819453-26.824117-4.819453L296.971244 453.549192c-9.440956 0-18.373823 1.920471-26.843356 4.826541l0-50.650009c0-47.677228-36.237735-86.460268-80.771961-86.460268L134.172611 321.265456c-47.533449 0-90.831169 41.209473-90.831169 86.460268L43.341441 866.619393c0 43.741109 41.913386 97.184812 90.831169 97.184812l60.369246 0 0 37.797532 75.594114 0 0-37.797532 529.164871 0 0 37.797532 75.595126 0 0-37.797532 52.51497 0c47.00521 0 79.768136-51.212588 79.768136-97.184812L1007.179074 407.725682C1007.179116 359.244034 972.137384 321.265452 927.41098 321.265452zM270.136011 537.095301c0-14.809404 12.042456-26.850342 26.835255-26.850342l456.596302 0c14.763436 0 26.777642 11.994462 26.824117 26.759315l0 135.488292c-0.046577 14.761815-12.060682 26.739065-26.824117 26.739065L296.971244 699.231632c-14.792799 0-26.835255-12.030812-26.835255-26.833129L270.135988 537.095337zM950.48093 866.61941c0 19.543805-13.539081 40.493106-23.070051 40.493106L134.172611 907.112517c-13.400465 0-34.135009-24.599988-34.135009-40.493106L100.037602 407.725682c0-13.903795 18.17962-29.765525 34.135009-29.765525l55.182307 0c14.874713 0 24.074889 15.456008 24.074889 29.765525l0 348.200722 83.541484 0 456.596302 0 83.522258 0 0-83.433841c0-0.037464 0.010125-0.057714 0.010125-0.094064l0-135.304136c0-0.027338-0.010125-0.06379-0.010125-0.091027L837.08985 407.725682c0-13.629601 19.044728-29.765525 35.138833-29.765525l55.182307 0c14.44064 0 23.070051 15.131187 23.070051 29.765525L950.481042 866.619393z" p-id="7393"></path></svg>