<?xml version="1.0" encoding="UTF-8"?>
<svg width="22px" height="20px" viewBox="0 0 22 20" version="1.1" xmlns="http://www.w3.org/2000/svg" xmlns:xlink="http://www.w3.org/1999/xlink">
    <!-- Generator: Sketch 51.3 (57544) - http://www.bohemiancoding.com/sketch -->
    <title>teams</title>
    <desc>Created with Sketch.</desc>
    <defs></defs>
                    <path d="M19.877451,4.85397059 C19.8728431,4.84911765 19.8680882,4.84436275 19.8632353,4.8397549 L15.7377451,1.17308824 C15.700098,1.13877451 15.6561765,1.11215686 15.6083333,1.09465686 L12.6240196,0.0279901961 C12.4204412,-0.0459313725 12.1954902,0.0592156863 12.1215686,0.262794118 C12.1082353,0.299509804 12.1004902,0.337990196 12.0985294,0.377009804 C12.0985294,0.463284314 11.9691176,2.45151961 9.98088235,2.48289216 C7.98088235,2.45151961 7.85539216,0.463284314 7.85147059,0.377009804 C7.83990196,0.160735294 7.65519608,-0.00519607843 7.43892157,0.00637254902 C7.40176471,0.00838235294 7.36504902,0.0156372549 7.32990196,0.0279901961 L4.3495098,1.10642157 C4.30166667,1.12392157 4.2577451,1.15053922 4.22009804,1.18485294 L0.122058824,4.8397549 C-0.0349509804,4.98892157 -0.0413235294,5.23715686 0.107843137,5.39416667 C0.11245098,5.39901961 0.117205882,5.40377451 0.122058824,5.40838235 L3.38480392,8.70642157 L3.38480392,17.7260294 C3.38480392,17.942598 3.56039216,18.1181863 3.77696078,18.1181863 L16.2083333,18.1181863 C16.424902,18.1181863 16.6004902,17.942598 16.6004902,17.7260294 L16.6004902,8.70642157 L19.8632353,5.40838235 C20.0202451,5.25921569 20.0266176,5.01102941 19.877451,4.85397059 Z M16.5887255,7.58877451 L16.5887255,5.76916667 C16.5887255,5.55259804 16.4131373,5.3770098 16.1965686,5.3770098 C15.98,5.3770098 15.8044118,5.55259804 15.8044118,5.76916667 L15.8044118,17.3142647 L4.15343137,17.3142647 L4.15343137,5.76916667 C4.15343137,5.55259804 3.97784314,5.3770098 3.76127451,5.3770098 C3.54470588,5.3770098 3.36911765,5.55259804 3.36911765,5.76916667 L3.36911765,7.59269608 L0.957352941,5.14955882 L4.69068627,1.80838235 L7.14558824,0.922107843 C7.44970588,2.48906863 8.96651961,3.51284314 10.5334804,3.20872549 C11.6906863,2.98411765 12.5954902,2.07931373 12.820098,0.922107843 L15.275,1.80838235 L18.9965686,5.14955882 L16.5887255,7.58877451 Z M10.904,7.246 L10.904,14 L9.793,14 L9.793,8.621 L8.209,9.424 L8.209,8.269 L10.233,7.246 L10.904,7.246 Z"></path>
</svg>
