<?xml version="1.0" encoding="UTF-8"?>
<svg width="22px" height="22px" viewBox="0 0 22 22" version="1.1" xmlns="http://www.w3.org/2000/svg" xmlns:xlink="http://www.w3.org/1999/xlink">
    <!-- Generator: Sketch 51.3 (57544) - http://www.bohemiancoding.com/sketch -->
    <title>time</title>
    <desc>Created with Sketch.</desc>
    <defs></defs>
                    <path d="M10,0 C4.47715573,0 0,4.47715573 0,10 C0,15.5228443 4.47715573,20 10,20 C15.5228443,20 20,15.5228443 20,10 C19.9929215,4.48010511 15.5198949,0.00707850708 10,0 Z M10.4290004,19.1205491 L10.4290004,17.3616474 C10.4290004,17.1247319 10.2369155,16.9326469 10,16.9326469 C9.76308451,16.9326469 9.57099957,17.1247319 9.57099957,17.3616474 L9.57099957,19.1205491 C4.86695624,18.8959674 1.1040326,15.1330438 0.879450879,10.4290004 L2.63835264,10.4290004 C2.87526813,10.4290004 3.06735307,10.2369155 3.06735307,10 C3.06735307,9.76308451 2.87526813,9.57099957 2.63835264,9.57099957 L0.879450879,9.57099957 C1.1040326,4.86695624 4.86695624,1.1040326 9.57099957,0.879450879 L9.57099957,2.63835264 C9.57099957,2.87526813 9.76308451,3.06735307 10,3.06735307 C10.2369155,3.06735307 10.4290004,2.87526813 10.4290004,2.63835264 L10.4290004,0.879450879 C15.1330438,1.1040326 18.8959674,4.86695624 19.1205491,9.57099957 L17.3616474,9.57099957 C17.1247319,9.57099957 16.9326469,9.76308451 16.9326469,10 C16.9326469,10.2369155 17.1247319,10.4290004 17.3616474,10.4290004 L17.3659374,10.4290004 L19.1248391,10.4290004 C18.9000965,15.1345989 15.1347061,18.8981124 10.4290004,19.1205491 Z" id="Shape"></path>
                    <path d="M14.8793391,14.24419 L10.8449072,9.92875324 L10.8449072,5.44443221 C10.8449072,5.19899452 10.6557536,5 10.4224536,5 C10.1891536,5 10,5.19899452 10,5.44443221 L10,10.1109704 C10.0004753,10.2275783 10.0444632,10.3392975 10.1225115,10.422073 L14.2752305,14.8663951 C14.4385616,15.0418903 14.7061859,15.0448902 14.8730023,14.8730616 C15.0398187,14.701233 15.0426702,14.4196852 14.8793391,14.24419 Z" id="Shape"></path>
</svg>
