<?xml version="1.0" encoding="UTF-8"?>
<svg width="20px" height="23px" viewBox="0 0 20 23" version="1.1" xmlns="http://www.w3.org/2000/svg" xmlns:xlink="http://www.w3.org/1999/xlink">
    <!-- Generator: Sketch 51.3 (57544) - http://www.bohemiancoding.com/sketch -->
    <title>user</title>
    <desc>Created with Sketch.</desc>
    <defs></defs>
                    <path d="M8.84656102,10.372408 C10.2715391,10.372408 11.5052935,9.86132814 12.5136536,8.85296801 C13.5216852,7.8447722 14.0329293,6.61118211 14.0329293,5.18603972 C14.0329293,3.76139019 13.5218494,2.52763579 12.5134894,1.51911143 C11.5051292,0.511079888 10.2713749,0 8.84656102,0 C7.42141867,0 6.18782854,0.511079888 5.17963273,1.5192757 C4.17143692,2.52747151 3.66019276,3.76122592 3.66019276,5.18603972 C3.66019276,6.61118211 4.17143692,7.84493647 5.17963273,8.85313228 C6.18815713,9.86116382 7.42191149,10.372408 8.84656102,10.372408 Z M6.07201007,2.41148877 C6.84561188,1.63788695 7.75310307,1.26184651 8.84656102,1.26184651 C9.93985469,1.26184651 10.8475102,1.63788695 11.6212763,2.41148877 C12.3948781,3.18525481 12.7710828,4.09291032 12.7710828,5.18603972 C12.7710828,6.27949766 12.3948781,7.1869889 11.6212763,7.96075494 C10.8475102,8.73452103 9.93985469,9.11056147 8.84656102,9.11056147 C7.75343166,9.11056147 6.84594042,8.73435676 6.07201007,7.96075494 C5.29824402,7.18715317 4.92203927,6.27949766 4.92203927,5.18603972 C4.92203927,4.09291032 5.29824402,3.18525481 6.07201007,2.41148877 Z" id="Shape"></path>
                    <path d="M17.9213091,16.5576081 C17.8922313,16.138033 17.8334185,15.6803446 17.7468422,15.1970283 C17.6594444,14.7100979 17.5469115,14.249781 17.4122007,13.8290559 C17.2728899,13.3942027 17.0838019,12.9647708 16.8497007,12.5532455 C16.6070568,12.1261135 16.321864,11.75418 16.0018436,11.4481236 C15.6672021,11.1279388 15.2574839,10.8705096 14.783696,10.6827358 C14.3115508,10.4959477 13.7883141,10.4013215 13.2286069,10.4013215 C13.0087982,10.4013215 12.7962179,10.4915121 12.3856783,10.7587982 C12.1330133,10.9235726 11.8374708,11.1141392 11.5075935,11.3249124 C11.2255221,11.5046364 10.8434032,11.673025 10.3714223,11.8254783 C9.91094114,11.9744816 9.44339589,12.0500511 8.98176474,12.0500511 C8.52046217,12.0500511 8.05291692,11.9744816 7.59210721,11.8254783 C7.12061916,11.6731893 6.738336,11.5048007 6.45675746,11.3250767 C6.13000144,11.1162748 5.83429466,10.9257082 5.57785119,10.7586339 C5.16764019,10.4913479 4.95505985,10.4011573 4.73525117,10.4011573 C4.17537967,10.4011573 3.65230724,10.4959477 3.18032638,10.6829001 C2.70686696,10.8703453 2.29698454,11.1277745 1.96201447,11.4482878 C1.64199402,11.7545086 1.35680127,12.1262778 1.11432171,12.5532455 C0.880549065,12.9647708 0.691296729,13.3940384 0.551985981,13.8292202 C0.417439388,14.2499452 0.304906542,14.7100979 0.217508762,15.1970283 C0.130768107,15.6796875 0.0721196075,16.1375402 0.043041785,16.5581009 C0.0144567757,16.9692976 0,17.397251 0,17.8296401 C0,18.9536543 0.357312364,19.8636098 1.06191589,20.5346999 C1.7578125,21.1969188 2.67844626,21.5327103 3.79835352,21.5327103 L14.1664902,21.5327103 C15.2860689,21.5327103 16.2067027,21.1969188 16.9027636,20.5346999 C17.6075314,19.8641027 17.9648437,18.9538187 17.9648437,17.8294757 C17.9646795,17.3956082 17.9500584,16.9676548 17.9213091,16.5576081 Z M16.0327285,19.6204731 C15.5729045,20.0581192 14.9624343,20.2708638 14.1663259,20.2708638 L3.79835352,20.2708638 C3.00208088,20.2708638 2.39161071,20.0581192 1.93195093,19.6206374 C1.48099811,19.1913697 1.26184651,18.6053775 1.26184651,17.8296401 C1.26184651,17.4261646 1.27515331,17.0277818 1.30176694,16.6453344 C1.3277234,16.2701154 1.38078635,15.857933 1.45947722,15.4199584 C1.53718238,14.9874051 1.63607989,14.5814654 1.75370547,14.2139676 C1.86656686,13.8615837 2.0204987,13.5126497 2.21139383,13.1765297 C2.39358205,12.8561806 2.60320534,12.5813376 2.83451375,12.3598861 C3.05087253,12.1527271 3.32357989,11.9831885 3.64491458,11.8560346 C3.94209988,11.738409 4.27608425,11.6740106 4.63865362,11.664318 C4.68284535,11.6878103 4.76153621,11.7326591 4.88901869,11.8157856 C5.14841926,11.9848313 5.44741166,12.1776979 5.77794613,12.3887996 C6.15053666,12.6263507 6.63056731,12.8409025 7.20407418,13.0260478 C7.790395,13.2156286 8.38837981,13.3118976 8.98192901,13.3118976 C9.57547825,13.3118976 10.1736273,13.2156286 10.7596196,13.026212 C11.3336193,12.8407382 11.8134857,12.6263507 12.1865691,12.3884711 C12.5248248,12.1722766 12.8154388,11.9849956 13.0748394,11.8157856 C13.2023218,11.7328235 13.2810127,11.6878103 13.3252044,11.664318 C13.6879381,11.6740106 14.0219224,11.738409 14.3192721,11.8560346 C14.6404425,11.9831885 14.9131498,12.1528914 15.1295086,12.3598861 C15.360817,12.5811733 15.5704403,12.8560164 15.7526285,13.1766939 C15.9436879,13.5126497 16.097784,13.8617479 16.2104812,14.2138033 C16.328271,14.5817939 16.4273328,14.9875694 16.5048737,15.4197941 C16.5834003,15.8585901 16.6366275,16.2709368 16.662584,16.6454987 L16.662584,16.6458272 C16.6893619,17.0267961 16.7028329,17.4250146 16.7029972,17.8296401 C16.7028329,18.6055418 16.4836813,19.1913697 16.0327285,19.6204731 Z" id="Shape"></path>
</svg>
