<?xml version="1.0" encoding="UTF-8"?>
<svg width="76px" height="78px" viewBox="0 0 76 78" version="1.1" xmlns="http://www.w3.org/2000/svg" xmlns:xlink="http://www.w3.org/1999/xlink">
    <!-- Generator: Sketch 51.3 (57544) - http://www.bohemiancoding.com/sketch -->
    <title>work</title>
    <desc>Created with Sketch.</desc>
    <defs></defs>
    <g id="Page-1" stroke="none" stroke-width="1" fill="none" fill-rule="evenodd">
        <g id="Dashboard" transform="translate(-500.000000, -111.000000)" fill-rule="nonzero">
            <g id="stats2" transform="translate(499.000000, 110.000000)">
                <g id="work" transform="translate(1.000000, 1.000000)">
                    <path d="M3,0 L65,0 L65,78 L3,78 C1.34314575,78 7.32747196e-15,76.6568542 7.10542736e-15,75 L0,3 C-2.22044605e-16,1.34314575 1.34314575,2.22044605e-16 3,0 Z" id="Rectangle-2-Copy-7" fill="#2258CE"></path>
                    <g id="deadline" transform="translate(16.000000, 13.000000)">
                        <path d="M47.8464844,3.52898438 L4.61648437,3.52898438 C2.0709375,3.52898438 0,5.59992188 0,8.14546875 L0,42.6758203 C0,45.22125 2.0709375,47.2921875 4.61648437,47.2921875 L47.8464844,47.2921875 C50.3920312,47.2921875 52.4629688,45.22125 52.4629688,42.6758203 L52.4629688,8.14546875 C52.4629688,5.59992188 50.3920312,3.52898438 47.8464844,3.52898438 Z" id="Shape" fill="#EBEEF2"></path>
                        <path d="M47.8464844,3.52898438 L44.3330859,3.52898438 C46.8786328,3.52898438 48.9495703,5.59992188 48.9495703,8.14546875 L48.9495703,42.6758203 C48.9495703,45.22125 46.8786328,47.2921875 44.3330859,47.2921875 L47.8464844,47.2921875 C50.3920313,47.2921875 52.4629688,45.22125 52.4629688,42.6758203 L52.4629688,8.14546875 C52.4629688,5.59992188 50.3920313,3.52898438 47.8464844,3.52898438 Z" id="Shape" fill="#D1D6DE"></path>
                        <path d="M47.8464844,3.52898437 L4.61648437,3.52898437 C2.0709375,3.52898437 0,5.59992187 0,8.14546875 L0,13.9992187 L52.4629688,13.9992187 L52.4629688,8.14546875 C52.4629688,5.59992187 50.3920312,3.52898437 47.8464844,3.52898437 Z" id="Shape" fill="#ED675A"></path>
                        <path d="M47.8464844,3.52898437 L44.3330859,3.52898437 C46.8786328,3.52898437 48.9495703,5.59992187 48.9495703,8.14546875 L48.9495703,13.9992187 L52.4629688,13.9992187 L52.4629688,8.14546875 C52.4629688,5.59992187 50.3920313,3.52898437 47.8464844,3.52898437 Z" id="Shape" fill="#CC3A60"></path>
                        <g id="Group" transform="translate(11.835938, 0.000000)" fill="#F2C733">
                            <path d="M1.97742187,0.083671875 C0.922265625,0.083671875 0.0669140625,0.939023437 0.0669140625,1.99417969 L0.0669140625,6.84773437 C0.0669140625,7.90289063 0.922265625,8.75824219 1.97742187,8.75824219 C3.03257812,8.75824219 3.88792969,7.90289062 3.88792969,6.84773437 L3.88792969,1.99417969 C3.8878125,0.939023437 3.03257812,0.083671875 1.97742187,0.083671875 Z" id="Shape"></path>
                            <path d="M26.8136719,0.083671875 C25.7585156,0.083671875 24.9031641,0.939023437 24.9031641,1.99417969 L24.9031641,6.84773437 C24.9031641,7.90289063 25.7585156,8.75824219 26.8136719,8.75824219 C27.8688281,8.75824219 28.7241797,7.90289062 28.7241797,6.84773437 L28.7241797,1.99417969 C28.7241797,0.939023437 27.8688281,0.083671875 26.8136719,0.083671875 Z" id="Shape"></path>
                        </g>
                        <path d="M45.6664453,39.9655078 L33.0714844,39.9655078 C32.5788281,39.9655078 32.1794531,39.56625 32.1794531,39.0734766 C32.1794531,38.5807031 32.5788281,38.1815625 33.0714844,38.1815625 L45.6665625,38.1815625 C46.1592187,38.1815625 46.5584766,38.5808203 46.5584766,39.0734766 C46.5584766,39.5661328 46.1592187,39.9655078 45.6664453,39.9655078 Z" id="Shape" fill="#ED675A"></path>
                        <path d="M22.5991406,22.2179297 L6.79640625,22.2179297 C6.30375,22.2179297 5.90449219,21.8186719 5.90449219,21.3260156 C5.90449219,20.8332422 6.30386719,20.4341016 6.79640625,20.4341016 L22.5991406,20.4341016 C23.0917969,20.4341016 23.4910547,20.8333594 23.4910547,21.3260156 C23.4910547,21.8186719 23.0916797,22.2179297 22.5991406,22.2179297 Z" id="Shape" fill="#61BCA9"></path>
                        <path d="M33.0714844,31.0917187 L22.5991406,31.0917187 C22.1064844,31.0917187 21.7072266,30.6924609 21.7072266,30.1998047 C21.7072266,29.7070312 22.1066016,29.3077734 22.5991406,29.3077734 L33.0714844,29.3077734 C33.5641406,29.3077734 33.9635156,29.7070312 33.9635156,30.1998047 C33.9633984,30.6925781 33.5641406,31.0917187 33.0714844,31.0917187 Z" id="Shape" fill="#5C9CEE"></path>
                        <g id="Group" transform="translate(5.859375, 18.164062)" fill="#1B3D66">
                            <path d="M0.93703125,6.27480469 C0.444375,6.27480469 0.0451171875,5.87554687 0.0451171875,5.38289062 L0.0451171875,0.941015625 C0.0451171875,0.448242187 0.444492188,0.0491015625 0.93703125,0.0491015625 C1.42957031,0.0491015625 1.82894531,0.448359375 1.82894531,0.941015625 L1.82894531,5.38277344 C1.82894531,5.87554688 1.4296875,6.27480469 0.93703125,6.27480469 Z" id="Shape"></path>
                            <path d="M16.7397656,6.27480469 C16.2471094,6.27480469 15.8478516,5.87554687 15.8478516,5.38289062 L15.8478516,0.941015625 C15.8478516,0.448242187 16.2472266,0.0491015625 16.7397656,0.0491015625 C17.2324219,0.0491015625 17.6316797,0.448359375 17.6316797,0.941015625 L17.6316797,5.38277344 C17.6316797,5.87554688 17.2324219,6.27480469 16.7397656,6.27480469 Z" id="Shape"></path>
                            <path d="M16.7397656,15.1484766 C16.2471094,15.1484766 15.8478516,14.7492188 15.8478516,14.2565625 L15.8478516,9.81480469 C15.8478516,9.32203125 16.2472266,8.92289062 16.7397656,8.92289062 C17.2324219,8.92289062 17.6316797,9.32214844 17.6316797,9.81480469 L17.6316797,14.2565625 C17.6316797,14.7492188 17.2324219,15.1484766 16.7397656,15.1484766 Z" id="Shape"></path>
                            <path d="M27.2121094,15.1484766 C26.7194531,15.1484766 26.3200781,14.7492188 26.3200781,14.2565625 L26.3200781,9.81480469 C26.3200781,9.32203125 26.7194531,8.92289062 27.2121094,8.92289062 C27.7047656,8.92289062 28.1041406,9.32214844 28.1041406,9.81480469 L28.1041406,14.2565625 C28.1040234,14.7492188 27.7047656,15.1484766 27.2121094,15.1484766 Z" id="Shape"></path>
                            <path d="M27.2121094,24.0222656 C26.7194531,24.0222656 26.3200781,23.6230078 26.3200781,23.1302344 L26.3200781,18.6884766 C26.3200781,18.1957031 26.7194531,17.7965625 27.2121094,17.7965625 C27.7047656,17.7965625 28.1041406,18.1958203 28.1041406,18.6884766 L28.1041406,23.1302344 C28.1040234,23.6228906 27.7047656,24.0222656 27.2121094,24.0222656 Z" id="Shape"></path>
                        </g>
                        <path d="M45.6665625,42.1863281 C45.1739063,42.1863281 44.7745313,41.7870703 44.7745313,41.2942969 L44.7745313,36.8525391 C44.7745313,36.3597656 45.1739063,35.960625 45.6665625,35.960625 C46.1592188,35.960625 46.5584766,36.3598828 46.5584766,36.8525391 L46.5584766,41.2942969 C46.5585938,41.7869531 46.1592188,42.1863281 45.6665625,42.1863281 Z" id="Shape" fill="#000000"></path>
                        <g id="Group" transform="translate(47.343750, 29.296875)" fill="#656D88">
                            <path d="M7.36125,7.72992187 C7.13296875,7.72992187 6.9046875,7.64285156 6.73054688,7.46859375 C6.38214844,7.12019531 6.38214844,6.55546875 6.73054688,6.2071875 L8.45953125,4.47832031 C8.80792969,4.13003906 9.37265625,4.12992187 9.7209375,4.4784375 C10.0693359,4.82683594 10.0693359,5.3915625 9.7209375,5.73984375 L7.99195313,7.46871094 C7.8178125,7.64273437 7.58953125,7.72992187 7.36125,7.72992187 Z" id="Shape"></path>
                            <path d="M1.00699219,5.09789063 C0.514335938,5.09789063 0.114960937,4.69863281 0.114960937,4.20597656 L0.114960937,0.95109375 C0.114960937,0.458320313 0.514335938,0.0590625 1.00699219,0.0590625 C1.49964844,0.0590625 1.89890625,0.458320313 1.89890625,0.95109375 L1.89890625,4.20597656 C1.89890625,4.69863281 1.49953125,5.09789063 1.00699219,5.09789063 Z" id="Shape"></path>
                        </g>
                        <circle id="Oval" fill="#93C4F9" cx="48.3508594" cy="42.6308203" r="9.12785156"></circle>
                        <path d="M49.8526172,33.6278906 C52.7873437,35.1457031 54.7946484,38.2066406 54.7946484,41.7386719 C54.7946484,46.7798437 50.7079687,50.8665234 45.6667969,50.8665234 C45.1550391,50.8665234 44.6537109,50.8223438 44.1649219,50.7413672 C45.4190625,51.39 46.8416016,51.7585547 48.3508594,51.7585547 C53.3920313,51.7585547 57.4787109,47.671875 57.4787109,42.6307031 C57.4785937,38.1014062 54.1788281,34.3444922 49.8526172,33.6278906 Z" id="Shape" fill="#3580D3"></path>
                        <path d="M48.3507422,52.6505859 C42.8257031,52.6505859 38.3309766,48.1557422 38.3309766,42.6308203 C38.3309766,37.1058984 42.8258203,32.6108203 48.3507422,32.6108203 C53.8756641,32.6108203 58.3705078,37.1057812 58.3705078,42.6308203 C58.3705078,48.1558594 53.8756641,52.6505859 48.3507422,52.6505859 Z M48.3507422,34.3947656 C43.809375,34.3947656 40.1149219,38.0893359 40.1149219,42.6308203 C40.1149219,47.1721875 43.8094922,50.8666406 48.3507422,50.8666406 C52.8919922,50.8666406 56.5865625,47.1720703 56.5865625,42.6308203 C56.5865625,38.0893359 52.8921094,34.3947656 48.3507422,34.3947656 Z" id="Shape" fill="#1B3D66"></path>
                        <path d="M49.6515234,42.2219531 C49.4232422,42.2219531 49.1949609,42.1348828 49.0208203,41.9607422 C48.6724219,41.6122266 48.6724219,41.0476172 49.0208203,40.6992188 L51.7885547,37.9314844 C52.1369531,37.5832031 52.7016797,37.5832031 53.0499609,37.9314844 C53.3983594,38.28 53.3983594,38.8446094 53.0499609,39.1930078 L50.2822266,41.9607422 C50.1082031,42.1347656 49.8798047,42.2219531 49.6515234,42.2219531 Z" id="Shape" fill="#ED675A"></path>
                        <path d="M50.5782422,26.3562891 L46.123125,26.3562891 C45.3310547,26.3562891 44.6888672,26.9983594 44.6888672,27.7905469 L44.6888672,28.8138281 C44.6888672,29.6058984 45.3309375,30.2480859 46.123125,30.2480859 L50.5782422,30.2480859 C51.3703125,30.2480859 52.0125,29.6060156 52.0125,28.8138281 L52.0125,27.7905469 C52.0125,26.9983594 51.3703125,26.3562891 50.5782422,26.3562891 Z" id="Shape" fill="#61BCA9"></path>
                        <path d="M59.6845312,33.5219531 L57.3180469,31.1554687 C56.8972266,30.7346484 56.2150781,30.7346484 55.794375,31.1554687 L55.2508594,31.6989844 C54.8300391,32.1198047 54.8300391,32.8019531 55.2508594,33.2227734 L57.6173437,35.5892578 C58.0381641,36.0100781 58.7203125,36.0100781 59.1410156,35.5892578 L59.6845312,35.0457422 C60.1051172,34.6249219 60.1051172,33.9427734 59.6845312,33.5219531 Z" id="Shape" fill="#ED675A"></path>
                        <path d="M48.3507422,39.8989453 C46.8445312,39.8989453 45.6191016,41.124375 45.6191016,42.6307031 C45.6191016,44.1369141 46.8445312,45.3623437 48.3507422,45.3623437 C49.8569531,45.3623437 51.0823828,44.1369141 51.0823828,42.6307031 C51.0823828,41.1244922 49.8569531,39.8989453 48.3507422,39.8989453 Z" id="Shape" fill="#F2C733"></path>
                    </g>
                </g>
            </g>
        </g>
    </g>
</svg>