<?xml version="1.0" encoding="UTF-8"?>
<svg width="60px" height="49px" viewBox="0 0 60 49" version="1.1" xmlns="http://www.w3.org/2000/svg" xmlns:xlink="http://www.w3.org/1999/xlink">
    <!-- Generator: Sketch 51.3 (57544) - http://www.bohemiancoding.com/sketch -->
    <title>suitcase</title>
    <desc>Created with Sketch.</desc>
    <defs></defs>
    <g id="Page-1" stroke="none" stroke-width="1" fill="none" fill-rule="evenodd">
        <g id="Dashboard" transform="translate(-1205.000000, -125.000000)" fill-rule="nonzero">
            <g id="stats3-copy" transform="translate(1189.000000, 110.000000)">
                <g id="suitcase" transform="translate(16.000000, 15.000000)">
                    <path d="M35.5793527,8.31283482 L37.4529018,8.31283482 L36.2198661,1.53147321 C36.0604911,0.655022321 35.2970982,0.01796875 34.40625,0.01796875 L22.7364955,0.01796875 C21.8456473,0.01796875 21.0822545,0.655022321 20.9229911,1.53147321 L19.690067,8.31283482 L21.5636161,8.31283482 L22.2638393,4.46138393 C22.3435268,4.02310268 22.7252232,3.70457589 23.1706473,3.70457589 L33.9723214,3.70457589 C34.4177455,3.70457589 34.799442,4.02310268 34.8791295,4.46138393 L35.5793527,8.31283482 Z" id="Shape" fill="#ED675A"></path>
                    <path d="M10.2143619,47.0160714 C8.17831278,47.0160714 6.52775475,45.3655134 6.52775475,43.3294643 L6.52775475,8.31283482 C4.50770089,8.31283482 2.85714286,9.96339286 2.85714286,11.999442 L2.85714286,45.1791295 C2.85714286,47.2151786 4.50770089,48.8657366 6.54375,48.8657366 L56.3132812,48.8657366 C57.6770089,48.8657366 58.8543527,48.1167411 59.4920759,47.0159598 L11.1213914,47.0160714 L10.2143619,47.0160714 Z" id="Shape" fill="#D1D6DE" transform="translate(31.174609, 28.589286) scale(-1, 1) translate(-31.174609, -28.589286) "></path>
                    <path d="M53.45625,48.8657366 L3.68660714,48.8657366 C1.65055804,48.8657366 0,47.2151786 0,45.1791295 L0,11.999442 C0,9.96339286 1.65055804,8.31283482 3.68660714,8.31283482 L53.4561384,8.31283482 C55.4921875,8.31283482 57.1427455,9.96339286 57.1427455,11.999442 L57.1427455,45.1791295 C57.1428571,47.2151786 55.4922991,48.8657366 53.45625,48.8657366 Z" id="Shape" fill="#EBEEF2"></path>
                    <rect id="Rectangle-path" fill="#ED675A" x="9.21651786" y="8.31238839" width="3.68638393" height="40.5535714"></rect>
                    <rect id="Rectangle-path" fill="#DD8D19" x="9.21651786" y="21.2164062" width="3.68638393" height="7.37276786"></rect>
                    <path d="M12.9032366,21.2160714 L12.9032366,24.9026786 L9.21662946,24.9026786 L9.21662946,21.2160714 L12.9032366,21.2160714 Z M12.9032366,19.3727679 L9.21662946,19.3727679 C8.19866071,19.3727679 7.37332589,20.1981027 7.37332589,21.2160714 L7.37332589,24.9026786 C7.37332589,25.9207589 8.19866071,26.7459821 9.21662946,26.7459821 L12.9032366,26.7459821 C13.9212054,26.7459821 14.7465402,25.9206473 14.7465402,24.9026786 L14.7465402,21.2160714 C14.7465402,20.1979911 13.9212054,19.3727679 12.9032366,19.3727679 Z" id="Shape" fill="#F2C733"></path>
                    <path d="M11.059933,27.6676339 C10.5504464,27.6676339 10.1382812,27.2549107 10.1382812,26.7459821 L10.1382812,23.9810268 C10.1382812,23.4720982 10.550558,23.059375 11.059933,23.059375 C11.5694196,23.059375 11.9815848,23.4720982 11.9815848,23.9810268 L11.9815848,26.7459821 C11.9815848,27.2549107 11.569308,27.6676339 11.059933,27.6676339 Z" id="Shape" fill="#F2C733"></path>
                    <circle id="Oval" fill="#61BCA9" cx="24.8850446" cy="20.2945312" r="5.52991071"></circle>
                    <circle id="Oval" fill="#87D9C8" cx="24.8850446" cy="20.2945313" r="2.76495536"></circle>
                    <path d="M36.4324777,27.9643973 L36.8851563,30.5177455 L39.2450893,31.5924107 C39.9422991,31.9098214 39.9727679,32.8889509 39.2967634,33.2492187 L37.0082589,34.46875 L36.7155134,37.0453125 C36.6290179,37.8064732 35.7072545,38.138058 35.1558036,37.6063616 L33.2888393,35.8066964 L30.7478795,36.324442 C29.9973214,36.4773437 29.3970982,35.7032366 29.7322545,35.0143973 L30.8668527,32.6827009 L29.5892857,30.4261161 C29.2118304,29.7594866 29.7627232,28.949442 30.521317,29.0553571 L33.0895089,29.4139509 L34.8408482,27.5015625 C35.3582589,26.9367187 36.2987723,27.2101562 36.4324777,27.9643973 Z" id="Shape" fill="#F2C733"></path>
                    <path d="M23.8691964,39.5488839 L21.6948661,40.399442 C20.7467634,40.7703125 19.677567,40.3024554 19.3066964,39.3543527 L18.4561384,37.1800223 C18.0852679,36.2319196 18.553125,35.1627232 19.5012277,34.7918527 L21.675558,33.9412946 C22.6236607,33.5704241 23.6928571,34.0382812 24.0637277,34.9863839 L24.9142857,37.1607143 C25.2852679,38.1085937 24.8172991,39.1779018 23.8691964,39.5488839 Z" id="Shape" fill="#93C4F9"></path>
                    <path d="M20.9229911,1.53147321 L20.863058,1.86127232 L36.2799107,1.86127232 L36.2199777,1.53147321 C36.0606027,0.655022321 35.2972098,0.01796875 34.4063616,0.01796875 L22.7364955,0.01796875 C21.8456473,0.0178571429 21.0823661,0.654910714 20.9229911,1.53147321 Z" id="Shape" fill="#ED675A"></path>
                    <rect id="Rectangle-path" fill="#D29B6E" x="9.21651786" y="47.0222098" width="3.68638393" height="1.84330357"></rect>
                    <rect id="Rectangle-path" fill="#ED675A" x="44.2399554" y="8.31238839" width="3.68638393" height="40.5535714"></rect>
                    <rect id="Rectangle-path" fill="#DD8D19" x="44.2399554" y="21.2164062" width="3.68638393" height="7.37276786"></rect>
                    <path d="M47.9262277,21.2160714 L47.9262277,24.9026786 L44.2396205,24.9026786 L44.2396205,21.2160714 L47.9262277,21.2160714 Z M47.9262277,19.3727679 L44.2396205,19.3727679 C43.2216518,19.3727679 42.396317,20.1981027 42.396317,21.2160714 L42.396317,24.9026786 C42.396317,25.9207589 43.2216518,26.7459821 44.2396205,26.7459821 L47.9262277,26.7459821 C48.9441964,26.7459821 49.7695313,25.9206473 49.7695313,24.9026786 L49.7695313,21.2160714 C49.7695313,20.1979911 48.944308,19.3727679 47.9262277,19.3727679 Z" id="Shape" fill="#F2C733"></path>
                    <path d="M46.0829241,27.6676339 C45.5734375,27.6676339 45.1612723,27.2549107 45.1612723,26.7459821 L45.1612723,23.9810268 C45.1612723,23.4720982 45.5735491,23.059375 46.0829241,23.059375 C46.5922991,23.059375 47.0045759,23.4720982 47.0045759,23.9810268 L47.0045759,26.7459821 C47.0045759,27.2549107 46.5924107,27.6676339 46.0829241,27.6676339 Z" id="Shape" fill="#F2C733"></path>
                    <rect id="Rectangle-path" fill="#D29B6E" x="44.2399554" y="47.0222098" width="3.68638393" height="1.84330357"></rect>
                </g>
            </g>
        </g>
    </g>
</svg>