<?xml version="1.0" encoding="UTF-8"?>
<svg width="60px" height="54px" viewBox="0 0 60 54" version="1.1" xmlns="http://www.w3.org/2000/svg" xmlns:xlink="http://www.w3.org/1999/xlink">
    <!-- Generator: Sketch 51.3 (57544) - http://www.bohemiancoding.com/sketch -->
    <title>task</title>
    <desc>Created with Sketch.</desc>
    <defs></defs>
    <g id="Page-1" stroke="none" stroke-width="1" fill="none" fill-rule="evenodd">
        <g id="Dashboard" transform="translate(-1037.000000, -122.000000)" fill-rule="nonzero">
            <g id="task" transform="translate(1037.000000, 122.000000)">
                <path d="M58.9078125,9.55101562 L53.6578125,6.283125 C53.5184766,6.19640625 53.3574609,6.15035156 53.1933984,6.15035156 L2.3521875,6.15035156 C1.05515625,6.15046875 0,7.205625 0,8.50265625 L0,14.5323047 C0,15.8293359 1.05515625,16.8844922 2.3521875,16.8844922 L53.1932813,16.8844922 C53.3574609,16.8844922 53.5183594,16.8384375 53.6576953,16.7517187 L58.9076953,13.4839453 C59.5916016,13.0582031 59.9998828,12.3230859 59.9998828,11.5175391 C59.9998828,10.7119922 59.5917188,9.97675781 58.9078125,9.55101562 Z" id="Shape" fill="#F2C733"></path>
                <path d="M58.9078125,12.1860937 L53.6578125,13.2971484 C53.5184766,13.3266797 53.3574609,13.3422656 53.1933984,13.3422656 L2.3521875,13.3422656 C1.05515625,13.3422656 0,12.9835547 0,12.5425781 L0,14.5323047 C0,15.8293359 1.05515625,16.8844922 2.3521875,16.8844922 L53.1932812,16.8844922 C53.3574609,16.8844922 53.5183594,16.8384375 53.6576953,16.7517188 L58.9076953,13.4839453 C59.5916016,13.0582031 59.9998828,12.3230859 59.9998828,11.5175391 C60,11.7914062 59.5917188,12.0413672 58.9078125,12.1860937 Z" id="Shape" fill="#DD8D19"></path>
                <path d="M58.9078125,9.55101562 L53.6578125,6.283125 C53.5184766,6.19640625 53.3574609,6.15035156 53.1933984,6.15035156 L52.3144922,6.15035156 L52.3144922,16.884375 L53.1933984,16.884375 C53.3575781,16.884375 53.5184766,16.8383203 53.6578125,16.7516016 L58.9078125,13.4838281 C59.5917188,13.0580859 60,12.3229687 60,11.5174219 C60,10.711875 59.5917188,9.97675781 58.9078125,9.55101562 Z" id="Shape" fill="#444966"></path>
                <path d="M58.9078125,12.1860937 L53.6578125,13.2971484 C53.5184766,13.3266797 53.3574609,13.3422656 53.1933984,13.3422656 L52.3144922,13.3422656 L52.3144922,16.8844922 L53.1933984,16.8844922 C53.3575781,16.8844922 53.5184766,16.8384375 53.6578125,16.7517187 L58.9078125,13.4839453 C59.5917188,13.0582031 60,12.3230859 60,11.5175391 C60,11.7914063 59.5917188,12.0413672 58.9078125,12.1860937 Z" id="Shape" fill="#2E344C"></path>
                <path d="M5.14253906,14.5323047 L5.14253906,8.50265625 C5.14253906,7.205625 6.19769531,6.15046875 7.49472656,6.15046875 L2.3521875,6.15046875 C1.05515625,6.15046875 0,7.205625 0,8.50265625 L0,14.5323047 C0,15.8293359 1.05515625,16.8844922 2.3521875,16.8844922 L7.49472656,16.8844922 C6.1978125,16.8844922 5.14253906,15.8293359 5.14253906,14.5323047 Z" id="Shape" fill="#ED675A"></path>
                <path d="M5.14253906,14.5323047 L5.14253906,13.3422656 L2.3521875,13.3422656 C1.05515625,13.3422656 0,12.9835547 0,12.5425781 L0,14.5323047 C0,15.8293359 1.05515625,16.8844922 2.3521875,16.8844922 L7.49472656,16.8844922 C6.1978125,16.8844922 5.14253906,15.8293359 5.14253906,14.5323047 Z" id="Shape" fill="#CC3A60"></path>
                <path d="M45.0829687,2.69460938 L10.085625,2.69460938 C9.60023437,2.69460938 9.20671875,3.088125 9.20671875,3.57351563 L9.20671875,49.0740234 C9.20671875,51.4238672 11.1183984,53.3355469 13.4682422,53.3355469 L38.7509766,53.3355469 C38.9840625,53.3355469 39.2076562,53.2429688 39.3724219,53.0780859 L49.0870312,43.3634766 C49.2519141,43.1987109 49.3444922,42.9751172 49.3444922,42.7420312 L49.3444922,6.95613281 C49.3446094,4.60628906 47.4328125,2.69460938 45.0829687,2.69460938 Z" id="Shape" fill="#EBEEF2"></path>
                <path d="M45.0829687,2.69460938 L42.0360937,2.69460938 C44.3859375,2.69460938 46.2976172,4.60628906 46.2976172,6.95613281 L46.2976172,42.7420312 C46.2976172,42.9751172 46.2050391,43.1987109 46.0401563,43.3634766 L45.5689453,43.8346875 L48.6158203,43.8346875 L49.0870313,43.3634766 C49.2519141,43.1987109 49.3444922,42.9751172 49.3444922,42.7420312 L49.3444922,6.95613281 C49.3446094,4.60628906 47.4328125,2.69460938 45.0829687,2.69460938 Z" id="Shape" fill="#DCE0E5"></path>
                <path d="M49.2776953,42.4055859 C49.1416406,42.0771094 48.8211328,41.8630078 48.4657031,41.8630078 L38.7509766,41.8630078 C38.2655859,41.8630078 37.8720703,42.2565234 37.8720703,42.7419141 L37.8720703,52.4565234 C37.8720703,52.8120703 38.0861719,53.1324609 38.4146484,53.2685156 C38.5233984,53.3135156 38.6375391,53.3354297 38.7508594,53.3354297 C38.9796094,53.3354297 39.204375,53.2461328 39.3725391,53.0779688 L49.0872656,43.3633594 C49.3385156,43.1121094 49.41375,42.7340625 49.2776953,42.4055859 Z" id="Shape" fill="#D1D6DE"></path>
                <g id="Group" transform="translate(15.000000, 0.000000)" fill="#444966">
                    <path d="M0.901054687,7.04496094 C0.415664062,7.04496094 0.0221484375,6.65144531 0.0221484375,6.16605469 L0.0221484375,0.980859375 C0.0221484375,0.49546875 0.415664062,0.101953125 0.901054687,0.101953125 C1.38644531,0.101953125 1.77996094,0.49546875 1.77996094,0.980859375 L1.77996094,6.16605469 C1.77996094,6.65144531 1.3865625,7.04496094 0.901054687,7.04496094 Z" id="Shape"></path>
                    <path d="M9.8175,7.04496094 C9.33210938,7.04496094 8.93859375,6.65144531 8.93859375,6.16605469 L8.93859375,0.980859375 C8.93859375,0.49546875 9.33210938,0.101953125 9.8175,0.101953125 C10.3028906,0.101953125 10.6964063,0.49546875 10.6964063,0.980859375 L10.6964063,6.16605469 C10.6964063,6.65144531 10.3028906,7.04496094 9.8175,7.04496094 Z" id="Shape"></path>
                    <path d="M18.7339453,7.04496094 C18.2485547,7.04496094 17.8550391,6.65144531 17.8550391,6.16605469 L17.8550391,0.980859375 C17.8550391,0.49546875 18.2485547,0.101953125 18.7339453,0.101953125 C19.2193359,0.101953125 19.6128516,0.49546875 19.6128516,0.980859375 L19.6128516,6.16605469 C19.6128516,6.65144531 19.2193359,7.04496094 18.7339453,7.04496094 Z" id="Shape"></path>
                    <path d="M27.6503906,7.04496094 C27.165,7.04496094 26.7714844,6.65144531 26.7714844,6.16605469 L26.7714844,0.980859375 C26.7714844,0.49546875 27.165,0.101953125 27.6503906,0.101953125 C28.1357813,0.101953125 28.5292969,0.49546875 28.5292969,0.980859375 L28.5292969,6.16605469 C28.5292969,6.65144531 28.1357813,7.04496094 27.6503906,7.04496094 Z" id="Shape"></path>
                </g>
                <path d="M18.3386719,17.4563672 C18.1137891,17.4563672 17.8887891,17.3705859 17.7172266,17.1989063 L15.9789844,15.4606641 C15.6357422,15.1174219 15.6357422,14.5608984 15.9789844,14.2177734 C16.3222266,13.8745313 16.87875,13.8745313 17.221875,14.2177734 L18.3386719,15.3345703 L20.9524219,12.7208203 C21.2956641,12.3775781 21.8521875,12.3775781 22.1953125,12.7208203 C22.5385547,13.0640625 22.5385547,13.6205859 22.1953125,13.9637109 L18.9601172,17.1989063 C18.7885547,17.3705859 18.5636719,17.4563672 18.3386719,17.4563672 Z" id="Shape" fill="#61BCA9"></path>
                <g id="Group" transform="translate(28.007812, 11.953125)" fill="#1B3D66">
                    <path d="M13.2912891,1.81769531 L0.978164063,1.81769531 C0.492773438,1.81769531 0.0992578125,1.42417969 0.0992578125,0.938789062 C0.0992578125,0.453398437 0.492773438,0.0598828125 0.978164063,0.0598828125 L13.2912891,0.0598828125 C13.7766797,0.0598828125 14.1701953,0.453398437 14.1701953,0.938789062 C14.1701953,1.42417969 13.7766797,1.81769531 13.2912891,1.81769531 Z" id="Shape"></path>
                    <path d="M5.32394531,5.95371094 L0.978164062,5.95371094 C0.492773437,5.95371094 0.0992578125,5.56019531 0.0992578125,5.07480469 C0.0992578125,4.58941406 0.492773437,4.19589844 0.978164062,4.19589844 L5.32394531,4.19589844 C5.80933594,4.19589844 6.20285156,4.58941406 6.20285156,5.07480469 C6.20285156,5.56019531 5.80933594,5.95371094 5.32394531,5.95371094 Z" id="Shape"></path>
                </g>
                <path d="M18.3386719,29.79375 C18.1055859,29.79375 17.8819922,29.7011719 17.7172266,29.5362891 L15.9789844,27.7979297 C15.6357422,27.4546875 15.6357422,26.8981641 15.9789844,26.5550391 C16.3222266,26.2117969 16.87875,26.2116797 17.221875,26.5550391 L18.3386719,27.6719531 L20.9524219,25.0582031 C21.2956641,24.7149609 21.8521875,24.7149609 22.1953125,25.0582031 C22.5385547,25.4014453 22.5385547,25.9579688 22.1953125,26.3010938 L18.9601172,29.5362891 C18.7953516,29.7011719 18.5717578,29.79375 18.3386719,29.79375 Z" id="Shape" fill="#61BCA9"></path>
                <g id="Group" transform="translate(28.007812, 24.257812)" fill="#1B3D66">
                    <path d="M13.2912891,1.85027344 L0.978164063,1.85027344 C0.492773438,1.85027344 0.0992578125,1.45675781 0.0992578125,0.971367187 C0.0992578125,0.485976562 0.492773438,0.0924609375 0.978164063,0.0924609375 L13.2912891,0.0924609375 C13.7766797,0.0924609375 14.1701953,0.485976562 14.1701953,0.971367187 C14.1701953,1.45675781 13.7766797,1.85027344 13.2912891,1.85027344 Z" id="Shape"></path>
                    <path d="M5.32394531,5.98628906 L0.978164062,5.98628906 C0.492773437,5.98628906 0.0992578125,5.59277344 0.0992578125,5.10738281 C0.0992578125,4.62199219 0.492773437,4.22847656 0.978164062,4.22847656 L5.32394531,4.22847656 C5.80933594,4.22847656 6.20285156,4.62199219 6.20285156,5.10738281 C6.20285156,5.59277344 5.80933594,5.98628906 5.32394531,5.98628906 Z" id="Shape"></path>
                    <path d="M13.2912891,14.1875391 L0.978164063,14.1875391 C0.492773438,14.1875391 0.0992578125,13.7940234 0.0992578125,13.3086328 C0.0992578125,12.8232422 0.492773438,12.4297266 0.978164063,12.4297266 L13.2912891,12.4297266 C13.7766797,12.4297266 14.1701953,12.8232422 14.1701953,13.3086328 C14.1701953,13.7940234 13.7766797,14.1875391 13.2912891,14.1875391 Z" id="Shape"></path>
                    <path d="M5.32394531,18.3235547 L0.978164062,18.3235547 C0.492773437,18.3235547 0.0992578125,17.9300391 0.0992578125,17.4446484 C0.0992578125,16.9592578 0.492773437,16.5657422 0.978164062,16.5657422 L5.32394531,16.5657422 C5.80933594,16.5657422 6.20285156,16.9592578 6.20285156,17.4446484 C6.20285156,17.9300391 5.80933594,18.3235547 5.32394531,18.3235547 Z" id="Shape"></path>
                </g>
                <path d="M19.0871484,43.4830078 C16.8718359,43.4830078 15.0696094,41.6807812 15.0696094,39.4654687 C15.0696094,37.2501562 16.8718359,35.4479297 19.0871484,35.4479297 C21.3023438,35.4479297 23.1046875,37.2501562 23.1046875,39.4654687 C23.1046875,41.6807812 21.3024609,43.4830078 19.0871484,43.4830078 Z M19.0871484,37.2057422 C17.8410938,37.2057422 16.8274219,38.2194141 16.8274219,39.4654687 C16.8274219,40.7115234 17.8410938,41.7251953 19.0871484,41.7251953 C20.3330859,41.7251953 21.346875,40.7115234 21.346875,39.4654687 C21.346875,38.2194141 20.3332031,37.2057422 19.0871484,37.2057422 Z" id="Shape" fill="#ED675A"></path>
            </g>
        </g>
    </g>
</svg>